<svg version="1.1" xmlns="http://www.w3.org/2000/svg" viewBox="0 0 226.4000244140625 146.4000244140625" width="226.4000244140625" height="146.4000244140625" class="excalidraw-svg">
  <!-- svg-source:excalidraw -->
  
  <defs>
    <style class="style-fonts">
      @font-face {
        font-family: "Virgil";
        src: url("https://excalidraw.com/Virgil.woff2");
      }
      @font-face {
        font-family: "Cascadia";
        src: url("https://excalidraw.com/Cascadia.woff2");
      }
      @font-face {
        font-family: "Assistant";
        src: url("https://excalidraw.com/Assistant-Regular.woff2");
      }
    </style>
    
  </defs>
  <rect x="0" y="0" width="226.4000244140625" height="146.4000244140625" fill="#ffffff"/><g stroke-linecap="round" transform="translate(10 10) rotate(0 103.20001220703125 63.20001220703125)"><path d="M86.54 1.61 C99.39 -0.45, 114.94 0.87, 128.3 3 C141.66 5.13, 155.82 9.17, 166.73 14.38 C177.64 19.58, 187.15 26.91, 193.77 34.24 C200.39 41.56, 205.31 49.72, 206.44 58.34 C207.58 66.95, 205.48 77.8, 200.58 85.93 C195.68 94.06, 187.06 101.24, 177.05 107.11 C167.04 112.98, 153.58 118.03, 140.5 121.15 C127.42 124.27, 112.37 126.12, 98.56 125.81 C84.76 125.51, 70.15 123.11, 57.68 119.33 C45.22 115.55, 32.75 109.82, 23.79 103.15 C14.82 96.49, 7.69 87.43, 3.91 79.35 C0.14 71.27, -1.02 62.99, 1.14 54.69 C3.3 46.4, 9.28 37.06, 16.88 29.58 C24.48 22.1, 34.84 14.53, 46.73 9.81 C58.62 5.09, 80.72 2.78, 88.22 1.26 C95.72 -0.25, 91.39 -0.34, 91.75 0.72 M70.86 3.12 C82.78 -0.03, 97.65 1.02, 111.35 1.66 C125.05 2.29, 140.49 2.78, 153.05 6.93 C165.6 11.08, 178.09 19.3, 186.66 26.54 C195.23 33.78, 201.38 42.05, 204.46 50.37 C207.54 58.69, 207.92 68.26, 205.13 76.45 C202.34 84.64, 195.99 92.9, 187.72 99.53 C179.45 106.15, 167.64 111.87, 155.53 116.22 C143.41 120.56, 128.82 124.12, 115.03 125.59 C101.23 127.06, 85.84 127.57, 72.78 125.05 C59.72 122.53, 47.21 116.4, 36.64 110.47 C26.08 104.53, 15.66 97.39, 9.37 89.45 C3.07 81.51, -1.13 71.51, -1.13 62.85 C-1.13 54.18, 3.93 45.24, 9.35 37.46 C14.77 29.67, 21.26 21.64, 31.39 16.13 C41.51 10.61, 63.61 6.23, 70.1 4.35 C76.59 2.47, 70.01 3.9, 70.32 4.86" stroke="#1e1e1e" stroke-width="2" fill="none"/></g></svg>