<svg version="1.1" xmlns="http://www.w3.org/2000/svg" viewBox="0 0 151.20004272460938 254.39999389648438" width="151.20004272460938" height="254.39999389648438" class="excalidraw-svg">
  <!-- svg-source:excalidraw -->
  
  <defs>
    <style class="style-fonts">
      @font-face {
        font-family: "Virgil";
        src: url("https://excalidraw.com/Virgil.woff2");
      }
      @font-face {
        font-family: "Cascadia";
        src: url("https://excalidraw.com/Cascadia.woff2");
      }
      @font-face {
        font-family: "Assistant";
        src: url("https://excalidraw.com/Assistant-Regular.woff2");
      }
    </style>
    
  </defs>
  <rect x="0" y="0" width="151.20004272460938" height="254.39999389648438" fill="#ffffff"/><g stroke-linecap="round" transform="translate(40.4000244140625 10) rotate(0 50.40000915527344 47.19999694824219)"><path d="M41.33 0.57 C49.03 -1.63, 59.77 0.01, 67.77 2.54 C75.77 5.07, 83.81 9.77, 89.32 15.75 C94.83 21.73, 99.32 30.68, 100.83 38.42 C102.34 46.16, 101.25 54.81, 98.37 62.21 C95.49 69.61, 89.95 77.57, 83.53 82.8 C77.12 88.04, 68.24 92.05, 59.86 93.62 C51.48 95.2, 41.09 94.99, 33.25 92.24 C25.42 89.48, 18.29 83.07, 12.86 77.07 C7.44 71.08, 2.41 64.01, 0.72 56.26 C-0.97 48.51, -0.05 38.15, 2.74 30.59 C5.52 23.02, 10.63 16.01, 17.44 10.88 C24.25 5.76, 38.5 1.34, 43.6 -0.16 C48.71 -1.67, 47.72 0.98, 48.06 1.88 M61.35 2.02 C69.72 3.08, 78.4 8.04, 84.54 12.92 C90.69 17.81, 95.72 24.21, 98.2 31.32 C100.69 38.43, 101.22 47.85, 99.45 55.59 C97.67 63.33, 93.2 71.68, 87.55 77.74 C81.89 83.8, 73.06 89.5, 65.51 91.93 C57.96 94.37, 50.25 93.68, 42.23 92.37 C34.21 91.05, 23.84 89.24, 17.38 84.06 C10.93 78.87, 6.11 69.02, 3.51 61.26 C0.9 53.5, 0.21 44.97, 1.77 37.5 C3.33 30.03, 7.78 22.2, 12.89 16.43 C18 10.65, 24.48 5.51, 32.42 2.85 C40.37 0.2, 55.89 0.62, 60.56 0.47 C65.23 0.32, 60.5 1.28, 60.46 1.94" stroke="#1e1e1e" stroke-width="2" fill="none"/></g><g stroke-linecap="round" transform="translate(10 148.39999389648438) rotate(0 40.00001525878906 48)"><path d="M35.93 -0.31 C42.6 -1.89, 51.16 1.51, 57.44 5.49 C63.73 9.46, 69.83 16.16, 73.63 23.53 C77.42 30.91, 80.14 41.26, 80.22 49.74 C80.29 58.21, 77.98 67.46, 74.09 74.39 C70.19 81.32, 63.51 87.71, 56.84 91.32 C50.17 94.92, 41.45 97.25, 34.09 96.03 C26.72 94.8, 17.95 89.9, 12.66 83.96 C7.37 78.03, 4.33 68.77, 2.36 60.41 C0.39 52.05, -1.17 42.04, 0.84 33.81 C2.84 25.58, 7.62 16.53, 14.39 11.01 C21.16 5.49, 35.87 2.26, 41.47 0.69 C47.06 -0.89, 47.9 0.92, 47.97 1.55 M25.62 2.87 C31.54 -0.81, 40.22 -1.13, 47.13 0.54 C54.05 2.21, 61.7 6.79, 67.1 12.89 C72.51 18.98, 77.72 28.8, 79.57 37.12 C81.42 45.44, 80.51 54.88, 78.21 62.81 C75.91 70.75, 71.69 79.12, 65.77 84.73 C59.86 90.35, 50.32 95.41, 42.72 96.5 C35.13 97.58, 26.7 95.4, 20.21 91.26 C13.72 87.11, 7.24 79.4, 3.76 71.63 C0.28 63.85, -1.13 53.26, -0.68 44.58 C-0.23 35.9, 1.99 26.28, 6.46 19.54 C10.93 12.8, 23.03 6.58, 26.12 4.13 C29.22 1.67, 24.77 4.2, 25.03 4.8" stroke="#1e1e1e" stroke-width="2" fill="none"/></g></svg>