<svg version="1.1" xmlns="http://www.w3.org/2000/svg" viewBox="0 0 262.4000244140625 184" width="262.4000244140625" height="184" class="excalidraw-svg">
  <!-- svg-source:excalidraw -->
  
  <defs>
    <style class="style-fonts">
      @font-face {
        font-family: "Virgil";
        src: url("https://excalidraw.com/Virgil.woff2");
      }
      @font-face {
        font-family: "Cascadia";
        src: url("https://excalidraw.com/Cascadia.woff2");
      }
      @font-face {
        font-family: "Assistant";
        src: url("https://excalidraw.com/Assistant-Regular.woff2");
      }
    </style>
    
  </defs>
  <rect x="0" y="0" width="262.4000244140625" height="184" fill="#ffffff"/><g stroke-linecap="round" transform="translate(10 10) rotate(0 121.20001220703125 82)"><path d="M32 0 C96.98 1.6, 163.8 1.57, 210.4 0 M32 0 C72 -1, 110.87 -1.53, 210.4 0 M210.4 0 C232.82 0.82, 242.04 12.65, 242.4 32 M210.4 0 C231.96 -0.83, 241.68 12.23, 242.4 32 M242.4 32 C242.26 64.65, 242.65 96.83, 242.4 132 M242.4 32 C244.13 62.52, 242.49 93.43, 242.4 132 M242.4 132 C241.89 152.65, 233.61 163.08, 210.4 164 M242.4 132 C241.79 155.24, 229.67 163.91, 210.4 164 M210.4 164 C153.51 161.85, 98.01 163.03, 32 164 M210.4 164 C146.56 162.65, 83.53 161.56, 32 164 M32 164 C10.43 163.27, 1.5 153.46, 0 132 M32 164 C9.88 164.74, -1.93 154.56, 0 132 M0 132 C-2.07 105.42, -1.15 79.03, 0 32 M0 132 C0.79 104.64, -0.6 76.18, 0 32 M0 32 C-1.33 11.05, 12.24 1.8, 32 0 M0 32 C-1.06 9.43, 9.79 0.69, 32 0" stroke="#1e1e1e" stroke-width="2" fill="none"/></g></svg>