<svg version="1.1" xmlns="http://www.w3.org/2000/svg" viewBox="0 0 151.19998168945312 143.20001220703125" width="151.19998168945312" height="143.20001220703125" class="excalidraw-svg">
  <!-- svg-source:excalidraw -->
  
  <defs>
    <style class="style-fonts">
      @font-face {
        font-family: "Virgil";
        src: url("https://excalidraw.com/Virgil.woff2");
      }
      @font-face {
        font-family: "Cascadia";
        src: url("https://excalidraw.com/Cascadia.woff2");
      }
      @font-face {
        font-family: "Assistant";
        src: url("https://excalidraw.com/Assistant-Regular.woff2");
      }
    </style>
    
  </defs>
  <rect x="0" y="0" width="151.19998168945312" height="143.20001220703125" fill="#ffffff"/><g stroke-linecap="round" transform="translate(10 10) rotate(0 65.59999084472656 61.600006103515625)"><path d="M30.8 0 C48.61 -0.94, 69.01 -0.15, 100.4 0 M30.8 0 C57.85 0.26, 86.22 -0.37, 100.4 0 M100.4 0 C120.61 0.01, 130.2 9.45, 131.2 30.8 M100.4 0 C122.29 0.72, 129.96 11.08, 131.2 30.8 M131.2 30.8 C130.93 51.67, 130.4 68.42, 131.2 92.4 M131.2 30.8 C130.13 52.45, 130.9 76.43, 131.2 92.4 M131.2 92.4 C130.18 113.98, 121.11 122.01, 100.4 123.2 M131.2 92.4 C130.86 110.9, 120.63 121.84, 100.4 123.2 M100.4 123.2 C84.17 124.31, 67.05 125.36, 30.8 123.2 M100.4 123.2 C82.19 122.28, 62.4 123.49, 30.8 123.2 M30.8 123.2 C11.14 123.99, -0.93 112.74, 0 92.4 M30.8 123.2 C10.91 124.63, 1.43 112.38, 0 92.4 M0 92.4 C-0.62 68.76, 0.93 45.03, 0 30.8 M0 92.4 C-0.45 75.01, 0.35 58.5, 0 30.8 M0 30.8 C-0.96 9.58, 9.79 -0.3, 30.8 0 M0 30.8 C0.59 12.46, 10.12 -1.14, 30.8 0" stroke="#1e1e1e" stroke-width="2" fill="none"/></g><g stroke-linecap="round" transform="translate(38.19999694824219 19.681262969970703) rotate(0 17.599998474121094 26.199996948242188)"><path d="M9.97 2.76 C13.18 0.09, 18.89 -0.89, 22.58 0.44 C26.26 1.76, 30 6.05, 32.07 10.71 C34.13 15.37, 35.46 22.52, 34.97 28.4 C34.48 34.28, 31.71 42.01, 29.11 45.99 C26.51 49.97, 22.94 52.13, 19.36 52.27 C15.77 52.4, 10.58 50.11, 7.58 46.77 C4.59 43.44, 2.21 37.64, 1.4 32.24 C0.59 26.84, 0.92 19.59, 2.72 14.38 C4.53 9.18, 10.61 3.04, 12.25 1.03 C13.89 -0.99, 12.55 1.71, 12.57 2.3 M14.46 1.64 C17.86 0.26, 22.16 2.04, 25.13 4.23 C28.1 6.43, 30.86 9.79, 32.26 14.8 C33.66 19.81, 34.33 28.57, 33.54 34.31 C32.75 40.05, 30.59 46.27, 27.52 49.23 C24.44 52.2, 18.8 53.09, 15.08 52.12 C11.36 51.16, 7.93 47.43, 5.2 43.45 C2.46 39.46, -0.81 33.81, -1.33 28.21 C-1.85 22.61, -0.33 14.49, 2.06 9.85 C4.46 5.21, 11.13 1.73, 13.01 0.36 C14.9 -1.02, 13 1.14, 13.39 1.61" stroke="#1e1e1e" stroke-width="2" fill="none"/></g></svg>