<svg version="1.1" xmlns="http://www.w3.org/2000/svg" viewBox="0 0 168.59999084472656 208.71875381469727" width="168.59999084472656" height="208.71875381469727" class="excalidraw-svg">
  <!-- svg-source:excalidraw -->
  
  <defs>
    <style class="style-fonts">
      @font-face {
        font-family: "Virgil";
        src: url("https://excalidraw.com/Virgil.woff2");
      }
      @font-face {
        font-family: "Cascadia";
        src: url("https://excalidraw.com/Cascadia.woff2");
      }
      @font-face {
        font-family: "Assistant";
        src: url("https://excalidraw.com/Assistant-Regular.woff2");
      }
    </style>
    
  </defs>
  <rect x="0" y="0" width="168.59999084472656" height="208.71875381469727" fill="#ffffff"/><g stroke-linecap="round" transform="translate(27.400009155273438 75.51874160766602) rotate(0 65.59999084472656 61.600006103515625)"><path d="M30.8 0 C48.61 -0.94, 69.01 -0.15, 100.4 0 M30.8 0 C57.85 0.26, 86.22 -0.37, 100.4 0 M100.4 0 C120.61 0.01, 130.2 9.45, 131.2 30.8 M100.4 0 C122.29 0.72, 129.96 11.08, 131.2 30.8 M131.2 30.8 C130.93 51.67, 130.4 68.42, 131.2 92.4 M131.2 30.8 C130.13 52.45, 130.9 76.43, 131.2 92.4 M131.2 92.4 C130.18 113.98, 121.11 122.01, 100.4 123.2 M131.2 92.4 C130.86 110.9, 120.63 121.84, 100.4 123.2 M100.4 123.2 C84.17 124.31, 67.05 125.36, 30.8 123.2 M100.4 123.2 C82.19 122.28, 62.4 123.49, 30.8 123.2 M30.8 123.2 C11.14 123.99, -0.93 112.74, 0 92.4 M30.8 123.2 C10.91 124.63, 1.43 112.38, 0 92.4 M0 92.4 C-0.62 68.76, 0.93 45.03, 0 30.8 M0 92.4 C-0.45 75.01, 0.35 58.5, 0 30.8 M0 30.8 C-0.96 9.58, 9.79 -0.3, 30.8 0 M0 30.8 C0.59 12.46, 10.12 -1.14, 30.8 0" stroke="#1e1e1e" stroke-width="2" fill="none"/></g><g stroke-linecap="round" transform="translate(55.600006103515625 85.20000457763672) rotate(0 17.599998474121094 26.199996948242188)"><path d="M9.97 2.76 C13.18 0.09, 18.89 -0.89, 22.58 0.44 C26.26 1.76, 30 6.05, 32.07 10.71 C34.13 15.37, 35.46 22.52, 34.97 28.4 C34.48 34.28, 31.71 42.01, 29.11 45.99 C26.51 49.97, 22.94 52.13, 19.36 52.27 C15.77 52.4, 10.58 50.11, 7.58 46.77 C4.59 43.44, 2.21 37.64, 1.4 32.24 C0.59 26.84, 0.92 19.59, 2.72 14.38 C4.53 9.18, 10.61 3.04, 12.25 1.03 C13.89 -0.99, 12.55 1.71, 12.57 2.3 M14.46 1.64 C17.86 0.26, 22.16 2.04, 25.13 4.23 C28.1 6.43, 30.86 9.79, 32.26 14.8 C33.66 19.81, 34.33 28.57, 33.54 34.31 C32.75 40.05, 30.59 46.27, 27.52 49.23 C24.44 52.2, 18.8 53.09, 15.08 52.12 C11.36 51.16, 7.93 47.43, 5.2 43.45 C2.46 39.46, -0.81 33.81, -1.33 28.21 C-1.85 22.61, -0.33 14.49, 2.06 9.85 C4.46 5.21, 11.13 1.73, 13.01 0.36 C14.9 -1.02, 13 1.14, 13.39 1.61" stroke="#1e1e1e" stroke-width="2" fill="none"/></g><g transform="translate(34 10) rotate(0 -2 21.000003814697266)" stroke="none"><path fill="#1e1e1e" d="M 3.99,-2.47 Q 3.99,-2.47 5.52,-0.04 7.05,2.37 8.02,5.27 8.99,8.17 9.07,10.94 9.16,13.71 7.90,17.20 6.65,20.69 4.79,23.56 2.93,26.43 -0.41,29.49 -3.77,32.55 -6.39,34.79 -9.01,37.02 -11.12,38.61 -13.22,40.20 -15.58,42.22 -17.94,44.24 -19.64,45.43 -21.34,46.62 -21.96,46.82 -22.58,47.02 -23.23,47.06 -23.88,47.10 -24.52,46.99 -25.16,46.87 -25.75,46.61 -26.35,46.35 -26.86,45.95 -27.37,45.55 -27.78,45.04 -28.18,44.53 -28.45,43.94 -28.72,43.35 -28.84,42.71 -28.96,42.07 -28.93,41.42 -28.89,40.77 -28.70,40.15 -28.51,39.52 -28.18,38.96 -27.85,38.41 -27.39,37.94 -26.93,37.48 -26.38,37.14 -25.82,36.80 -22.52,35.61 -19.21,34.42 -16.32,33.53 -13.42,32.63 -9.83,31.72 -6.24,30.80 -2.94,30.11 0.36,29.43 2.87,28.77 5.39,28.11 7.82,27.54 10.25,26.97 12.70,26.18 15.16,25.38 15.59,25.21 16.03,25.03 16.76,24.54 17.50,24.05 18.35,23.83 19.21,23.60 20.09,23.66 20.97,23.72 21.79,24.05 22.60,24.39 23.27,24.97 23.94,25.55 24.38,26.31 24.83,27.07 25.01,27.93 25.19,28.80 25.09,29.68 24.98,30.55 24.60,31.35 24.22,32.15 23.61,32.78 22.99,33.42 22.21,33.82 21.42,34.23 20.55,34.36 19.68,34.49 18.81,34.34 17.94,34.19 17.16,33.77 16.39,33.34 15.79,32.69 15.18,32.05 14.82,31.24 14.46,30.44 14.38,29.56 14.29,28.68 14.49,27.82 14.69,26.96 15.15,26.21 15.62,25.45 16.30,24.89 16.98,24.33 17.80,24.01 18.62,23.69 19.51,23.65 20.39,23.61 21.24,23.86 22.08,24.11 22.81,24.61 23.54,25.11 24.06,25.82 24.59,26.53 24.86,27.37 25.13,28.21 25.12,29.09 25.11,29.98 24.82,30.81 24.53,31.65 23.99,32.34 23.45,33.04 23.45,33.04 23.45,33.04 20.41,34.50 17.37,35.97 14.86,36.43 12.36,36.90 10.07,37.33 7.78,37.76 5.14,38.38 2.49,39.01 -0.38,39.70 -3.26,40.39 -6.64,41.64 -10.03,42.89 -12.71,43.84 -15.40,44.80 -18.37,45.71 -21.34,46.62 -21.96,46.82 -22.58,47.02 -23.23,47.06 -23.87,47.10 -24.52,46.99 -25.16,46.87 -25.75,46.61 -26.35,46.35 -26.86,45.95 -27.37,45.55 -27.78,45.04 -28.18,44.53 -28.45,43.94 -28.72,43.35 -28.84,42.71 -28.96,42.07 -28.93,41.42 -28.89,40.77 -28.70,40.15 -28.51,39.52 -28.18,38.97 -27.85,38.41 -27.39,37.94 -26.93,37.48 -26.38,37.14 -25.82,36.80 -24.86,36.41 -23.91,36.01 -21.22,34.28 -18.53,32.54 -16.68,31.40 -14.84,30.25 -12.49,28.21 -10.15,26.17 -7.77,23.50 -5.39,20.84 -3.16,16.99 -0.94,13.14 -1.00,10.21 -1.07,7.28 -2.53,4.87 -3.99,2.47 -4.23,1.96 -4.47,1.44 -4.58,0.89 -4.69,0.33 -4.66,-0.23 -4.63,-0.79 -4.47,-1.34 -4.30,-1.88 -4.02,-2.37 -3.73,-2.86 -3.33,-3.26 -2.93,-3.67 -2.45,-3.96 -1.97,-4.26 -1.43,-4.44 -0.89,-4.61 -0.33,-4.65 0.23,-4.69 0.79,-4.60 1.35,-4.50 1.87,-4.27 2.39,-4.05 2.84,-3.70 3.29,-3.36 3.64,-2.91 3.99,-2.47 3.99,-2.47 L 3.99,-2.47 Z"/></g><g transform="translate(101.20001220703125 154.79999542236328) rotate(0 0.00005000000000165983 0.00005000000000165983)" stroke="none"><path fill="#1e1e1e" d="M 3.14,-3.14 Q 3.14,-3.14 3.55,-2.55 3.97,-1.97 4.18,-1.28 4.40,-0.59 4.38,0.11 4.36,0.83 4.11,1.51 3.86,2.18 3.41,2.74 2.96,3.30 2.36,3.69 1.75,4.07 1.05,4.25 0.36,4.42 -0.35,4.36 -1.07,4.30 -1.73,4.02 -2.39,3.74 -2.92,3.26 -3.46,2.78 -3.81,2.15 -4.16,1.53 -4.30,0.82 -4.43,0.11 -4.34,-0.59 -4.24,-1.30 -3.92,-1.94 -3.60,-2.59 -3.09,-3.09 -2.59,-3.60 -1.94,-3.92 -1.30,-4.24 -0.59,-4.34 0.12,-4.43 0.82,-4.30 1.53,-4.16 2.15,-3.81 2.78,-3.46 3.26,-2.92 3.74,-2.39 4.02,-1.73 4.31,-1.07 4.36,-0.35 4.42,0.36 4.25,1.05 4.07,1.75 3.69,2.36 3.30,2.96 2.74,3.41 2.18,3.86 1.51,4.11 0.83,4.36 0.11,4.38 -0.60,4.40 -1.28,4.18 -1.97,3.97 -2.55,3.55 -3.14,3.13 -3.14,3.14 -3.14,3.14 -3.47,2.71 -3.80,2.29 -4.02,1.80 -4.24,1.32 -4.33,0.79 -4.43,0.26 -4.40,-0.26 -4.36,-0.80 -4.20,-1.31 -4.04,-1.82 -3.77,-2.28 -3.49,-2.73 -3.11,-3.11 -2.73,-3.49 -2.28,-3.77 -1.82,-4.05 -1.31,-4.20 -0.80,-4.36 -0.26,-4.40 0.26,-4.43 0.79,-4.33 1.32,-4.24 1.80,-4.02 2.29,-3.80 2.71,-3.47 3.14,-3.14 3.14,-3.14 L 3.14,-3.14 Z"/></g></svg>