<svg version="1.1" xmlns="http://www.w3.org/2000/svg" viewBox="0 0 132 128" width="132" height="128" class="excalidraw-svg">
  <!-- svg-source:excalidraw -->
  
  <defs>
    <style class="style-fonts">
      @font-face {
        font-family: "Virgil";
        src: url("https://excalidraw.com/Virgil.woff2");
      }
      @font-face {
        font-family: "Cascadia";
        src: url("https://excalidraw.com/Cascadia.woff2");
      }
      @font-face {
        font-family: "Assistant";
        src: url("https://excalidraw.com/Assistant-Regular.woff2");
      }
    </style>
    
  </defs>
  <rect x="0" y="0" width="132" height="128" fill="#ffffff"/><g stroke-linecap="round" transform="translate(10 10) rotate(0 56 54)"><path d="M27 0 C48.99 -1.9, 68.36 -0.85, 85 0 M27 0 C45.82 -0.27, 62.67 -1.12, 85 0 M85 0 C104 -0.5, 112.09 7.97, 112 27 M85 0 C105.27 0.77, 113.72 10.73, 112 27 M112 27 C113.49 45.56, 112.6 62.1, 112 81 M112 27 C112.15 44.72, 113.4 63.57, 112 81 M112 81 C113.46 99.43, 101.94 106.86, 85 108 M112 81 C110.7 98.22, 101.48 107.28, 85 108 M85 108 C66.92 106.63, 50.59 107.93, 27 108 M85 108 C67.42 108.69, 49.81 108.87, 27 108 M27 108 C8.24 106.42, 1.13 100.92, 0 81 M27 108 C6.76 108.84, -0.31 97.07, 0 81 M0 81 C-1.5 66.28, -0.53 53.39, 0 27 M0 81 C0.63 60.2, 1.32 37.36, 0 27 M0 27 C-1.04 10.47, 9.48 -1.62, 27 0 M0 27 C-0.98 11.03, 9.74 0.41, 27 0" stroke="#1e1e1e" stroke-width="2" fill="none"/></g></svg>