<svg version="1.1" xmlns="http://www.w3.org/2000/svg" viewBox="0 0 216 212.80001831054688" width="216" height="212.80001831054688" class="excalidraw-svg">
  <!-- svg-source:excalidraw -->
  
  <defs>
    <style class="style-fonts">
      @font-face {
        font-family: "Virgil";
        src: url("https://excalidraw.com/Virgil.woff2");
      }
      @font-face {
        font-family: "Cascadia";
        src: url("https://excalidraw.com/Cascadia.woff2");
      }
      @font-face {
        font-family: "Assistant";
        src: url("https://excalidraw.com/Assistant-Regular.woff2");
      }
    </style>
    
  </defs>
  <rect x="0" y="0" width="216" height="212.80001831054688" fill="#ffffff"/><g stroke-linecap="round" transform="translate(10 10) rotate(0 98 96.40000915527344)"><path d="M88.22 -0.44 C99.97 -2.98, 114.54 0.16, 126.65 3.91 C138.76 7.67, 151.26 14.17, 160.88 22.09 C170.51 30.02, 178.58 40.76, 184.4 51.48 C190.23 62.21, 194.68 74.43, 195.85 86.46 C197.02 98.49, 195.05 111.67, 191.44 123.67 C187.82 135.67, 182.13 148.69, 174.16 158.47 C166.18 168.25, 154.55 176.88, 143.58 182.37 C132.61 187.85, 120.71 190.24, 108.35 191.39 C95.98 192.53, 81.45 192.61, 69.4 189.24 C57.35 185.86, 45.78 178.95, 36.03 171.13 C26.28 163.3, 16.87 153.29, 10.9 142.3 C4.92 131.32, 1.18 117.36, 0.18 105.22 C-0.82 93.08, 1.33 81.24, 4.89 69.46 C8.45 57.67, 13.66 44.17, 21.53 34.49 C29.4 24.82, 40.79 17.24, 52.09 11.42 C63.4 5.6, 82.78 1.24, 89.37 -0.41 C95.96 -2.06, 91.35 -0.33, 91.63 1.52 M85.22 2.1 C96.76 -0.4, 111.96 1.76, 124.36 4.64 C136.77 7.51, 150.02 11.74, 159.65 19.37 C169.28 27, 176.39 39.52, 182.15 50.4 C187.92 61.27, 192.43 72.89, 194.25 84.62 C196.08 96.36, 196.09 109.04, 193.1 120.81 C190.11 132.57, 184.2 145.21, 176.31 155.23 C168.41 165.25, 156.87 174.91, 145.74 180.92 C134.61 186.94, 121.61 190.12, 109.54 191.33 C97.47 192.54, 85.12 191.3, 73.31 188.2 C61.51 185.1, 48.86 180.13, 38.72 172.75 C28.57 165.38, 18.59 154.91, 12.43 143.95 C6.27 132.99, 3.34 119.15, 1.78 106.98 C0.21 94.81, -0.26 82.79, 3.03 70.94 C6.32 59.09, 13.93 45.82, 21.52 35.88 C29.12 25.93, 37.95 17.24, 48.6 11.29 C59.25 5.34, 79.25 1.72, 85.42 0.18 C91.59 -1.37, 85.53 0.46, 85.61 2" stroke="#1e1e1e" stroke-width="2" fill="none"/></g></svg>