<svg version="1.1" xmlns="http://www.w3.org/2000/svg" viewBox="0 0 240 232" width="240" height="232" class="excalidraw-svg">
  <!-- svg-source:excalidraw -->
  
  <defs>
    <style class="style-fonts">
      @font-face {
        font-family: "Virgil";
        src: url("https://excalidraw.com/Virgil.woff2");
      }
      @font-face {
        font-family: "Cascadia";
        src: url("https://excalidraw.com/Cascadia.woff2");
      }
      @font-face {
        font-family: "Assistant";
        src: url("https://excalidraw.com/Assistant-Regular.woff2");
      }
    </style>
    
  </defs>
  <rect x="0" y="0" width="240" height="232" fill="#ffffff"/><g stroke-linecap="round" transform="translate(10 10) rotate(0 110 106)"><path d="M32 0 C80.57 0.59, 132.22 1.3, 188 0 M32 0 C88.46 -1.61, 144.71 -0.64, 188 0 M188 0 C211.27 1.39, 221.5 12, 220 32 M188 0 C211.47 0.36, 219.72 10.33, 220 32 M220 32 C218.9 73.36, 219.9 116.55, 220 180 M220 32 C218.07 85.31, 218.4 136.83, 220 180 M220 180 C220.87 200.9, 209.35 210.7, 188 212 M220 180 C221.43 203.54, 210.83 214.28, 188 212 M188 212 C138.49 209.8, 86.99 209.94, 32 212 M188 212 C139.23 213.55, 88.56 213.1, 32 212 M32 212 C11.05 211.88, -1.79 200.4, 0 180 M32 212 C11.05 213.08, -2.22 201.44, 0 180 M0 180 C3.29 136.25, 0.3 91.07, 0 32 M0 180 C-0.27 136.85, -0.88 95.87, 0 32 M0 32 C0.06 10, 11.41 0.56, 32 0 M0 32 C-1.11 12.31, 12.26 -1.37, 32 0" stroke="#1e1e1e" stroke-width="2" fill="none"/></g></svg>