<svg version="1.1" xmlns="http://www.w3.org/2000/svg" viewBox="0 0 136.79998779296875 184.80001831054688" width="136.79998779296875" height="184.80001831054688" class="excalidraw-svg">
  <!-- svg-source:excalidraw -->
  
  <defs>
    <style class="style-fonts">
      @font-face {
        font-family: "Virgil";
        src: url("https://excalidraw.com/Virgil.woff2");
      }
      @font-face {
        font-family: "Cascadia";
        src: url("https://excalidraw.com/Cascadia.woff2");
      }
      @font-face {
        font-family: "Assistant";
        src: url("https://excalidraw.com/Assistant-Regular.woff2");
      }
    </style>
    
  </defs>
  <rect x="0" y="0" width="136.79998779296875" height="184.80001831054688" fill="#ffffff"/><g stroke-linecap="round" transform="translate(10 10) rotate(0 58.399993896484375 82.40000915527344)"><path d="M29.2 0 C49.12 1.47, 64.65 0.59, 87.6 0 M29.2 0 C48.88 -0.74, 67.79 -0.65, 87.6 0 M87.6 0 C108.89 -0.84, 115.8 8.57, 116.8 29.2 M87.6 0 C106.84 2.14, 116.63 9.82, 116.8 29.2 M116.8 29.2 C116.45 56.27, 117.24 82.47, 116.8 135.6 M116.8 29.2 C115.75 59.54, 116.65 89.5, 116.8 135.6 M116.8 135.6 C117.33 153.93, 107.8 163.28, 87.6 164.8 M116.8 135.6 C116.16 152.95, 105.67 166.59, 87.6 164.8 M87.6 164.8 C68.48 165.88, 46.69 163.94, 29.2 164.8 M87.6 164.8 C70.24 165.4, 53.08 165.19, 29.2 164.8 M29.2 164.8 C8.81 165.34, 1.27 156.42, 0 135.6 M29.2 164.8 C8.51 163.65, -2.29 155.72, 0 135.6 M0 135.6 C-1.26 111.19, 1.8 86.78, 0 29.2 M0 135.6 C-0.91 114.39, 0.24 90.99, 0 29.2 M0 29.2 C1.25 9, 11.24 -0.49, 29.2 0 M0 29.2 C0.83 9.6, 9.68 0.76, 29.2 0" stroke="#1e1e1e" stroke-width="2" fill="none"/></g></svg>