<svg version="1.1" xmlns="http://www.w3.org/2000/svg" viewBox="0 0 890.0000762939461 375.9999847412113" width="890.0000762939461" height="375.9999847412113" class="excalidraw-svg">
  <!-- svg-source:excalidraw -->
  
  <defs>
    <style class="style-fonts">
      @font-face {
        font-family: "Virgil";
        src: url("https://excalidraw.com/Virgil.woff2");
      }
      @font-face {
        font-family: "Cascadia";
        src: url("https://excalidraw.com/Cascadia.woff2");
      }
      @font-face {
        font-family: "Assistant";
        src: url("https://excalidraw.com/Assistant-Regular.woff2");
      }
    </style>
    
  </defs>
  <rect x="0" y="0" width="890.0000762939461" height="375.9999847412113" fill="#ffffff"/><g transform="translate(80 365.9999847412113) rotate(0 297.99999237060575 -0.9999847412109375)" stroke="none"><path fill="#1e1e1e" d="M 0,-3.12 Q 0,-3.12 8.05,-3.05 16.10,-2.98 24.12,-2.93 32.14,-2.88 55.10,-2.85 78.06,-2.81 106.79,-2.79 135.52,-2.76 165.56,-2.74 195.59,-2.72 216.41,-2.71 237.22,-2.69 263.32,-2.68 289.42,-2.67 307.41,-2.67 325.40,-2.66 340.47,-3.23 355.54,-3.80 371.20,-4.04 386.85,-4.28 402.71,-4.38 418.56,-4.48 435.07,-4.52 451.59,-4.57 468.38,-4.58 485.17,-4.60 500.36,-4.61 515.54,-4.62 527.75,-4.62 539.95,-4.62 550.32,-4.62 560.68,-4.62 568.53,-4.62 576.38,-4.62 580.87,-4.62 585.36,-4.62 587.84,-4.87 590.33,-5.13 592.65,-5.25 594.97,-5.38 595.51,-5.29 596.05,-5.20 596.54,-4.95 597.02,-4.69 597.40,-4.29 597.77,-3.90 598.00,-3.40 598.23,-2.90 598.29,-2.36 598.35,-1.81 598.23,-1.28 598.12,-0.74 597.83,-0.27 597.55,0.19 597.13,0.54 596.72,0.90 596.21,1.10 595.70,1.30 595.15,1.33 594.60,1.36 594.08,1.22 593.55,1.07 593.10,0.76 592.64,0.45 592.31,0.02 591.98,-0.41 591.80,-0.93 591.63,-1.45 591.63,-2.00 591.63,-2.54 591.80,-3.06 591.98,-3.58 592.31,-4.02 592.64,-4.45 593.10,-4.76 593.55,-5.07 594.08,-5.22 594.61,-5.36 595.15,-5.33 595.70,-5.30 596.21,-5.10 596.72,-4.90 597.14,-4.54 597.55,-4.19 597.83,-3.72 598.12,-3.25 598.24,-2.71 598.35,-2.18 598.29,-1.63 598.23,-1.09 598.00,-0.59 597.77,-0.09 597.40,0.29 597.02,0.69 596.54,0.95 596.05,1.20 595.51,1.29 594.97,1.38 594.97,1.38 594.97,1.38 592.65,1.25 590.33,1.13 587.84,0.88 585.36,0.62 580.87,0.62 576.39,0.62 568.53,0.63 560.68,0.63 550.32,0.63 539.95,0.63 527.75,0.63 515.55,0.64 500.36,0.65 485.18,0.66 468.39,0.68 451.60,0.70 435.10,0.74 418.59,0.79 402.77,0.90 386.94,1.00 371.34,1.25 355.74,1.50 340.57,2.08 325.40,2.66 307.41,2.67 289.42,2.67 263.32,2.68 237.22,2.69 216.41,2.71 195.59,2.72 165.56,2.74 135.52,2.76 106.79,2.79 78.06,2.81 55.10,2.85 32.14,2.88 24.12,2.93 16.10,2.98 8.05,3.05 0,3.12 -0.37,3.07 -0.74,3.03 -1.09,2.90 -1.45,2.76 -1.76,2.55 -2.07,2.33 -2.32,2.05 -2.57,1.77 -2.74,1.44 -2.92,1.10 -3.01,0.74 -3.10,0.37 -3.10,-0.00 -3.10,-0.37 -3.01,-0.74 -2.92,-1.10 -2.74,-1.44 -2.57,-1.77 -2.32,-2.05 -2.07,-2.33 -1.76,-2.55 -1.45,-2.76 -1.09,-2.90 -0.74,-3.03 -0.37,-3.07 0.00,-3.12 0.00,-3.12 L 0,-3.12 Z"/></g><g transform="translate(74.00001525878906 44.00001525878906) rotate(0 70.00000000000009 -1.0000228881835938)" stroke="none"><path fill="#1e1e1e" d="M -0.41,-3.71 Q -0.41,-3.71 4.77,-4.14 9.97,-4.56 18.06,-4.71 26.14,-4.85 34.15,-4.88 42.16,-4.90 51.31,-4.88 60.47,-4.87 69.53,-4.85 78.60,-4.82 85.32,-4.80 92.05,-4.78 96.06,-4.81 100.07,-4.85 102.35,-5.09 104.62,-5.33 106.74,-5.53 108.86,-5.74 111.49,-5.88 114.11,-6.02 116.38,-6.16 118.65,-6.30 121.41,-6.56 124.18,-6.81 126.32,-7.00 128.46,-7.19 131.88,-7.34 135.29,-7.49 137.22,-7.54 139.15,-7.59 140.04,-7.45 140.93,-7.30 141.73,-6.88 142.53,-6.45 143.16,-5.80 143.78,-5.14 144.16,-4.32 144.54,-3.49 144.64,-2.59 144.74,-1.69 144.54,-0.81 144.35,0.07 143.88,0.84 143.41,1.62 142.72,2.21 142.03,2.79 141.19,3.13 140.35,3.46 139.44,3.51 138.54,3.56 137.67,3.32 136.79,3.08 136.04,2.57 135.29,2.06 134.75,1.34 134.20,0.62 133.91,-0.23 133.62,-1.09 133.62,-2.00 133.62,-2.90 133.91,-3.76 134.20,-4.62 134.75,-5.34 135.30,-6.06 136.05,-6.57 136.80,-7.08 137.67,-7.32 138.54,-7.56 139.45,-7.51 140.35,-7.46 141.19,-7.13 142.03,-6.79 142.72,-6.21 143.41,-5.62 143.88,-4.84 144.35,-4.07 144.54,-3.18 144.74,-2.30 144.64,-1.40 144.54,-0.50 144.16,0.32 143.78,1.14 143.16,1.80 142.53,2.45 141.73,2.88 140.93,3.30 140.04,3.45 139.14,3.59 139.15,3.59 139.15,3.59 137.22,3.54 135.29,3.49 131.88,3.34 128.46,3.19 126.32,3.00 124.18,2.81 121.41,2.56 118.65,2.30 116.38,2.16 114.11,2.02 111.49,1.88 108.86,1.74 106.75,1.54 104.63,1.33 102.35,1.10 100.07,0.86 96.06,0.83 92.06,0.80 85.33,0.84 78.61,0.88 69.55,0.94 60.50,1.00 51.37,1.10 42.24,1.21 34.29,1.39 26.34,1.57 18.53,1.92 10.72,2.26 5.57,2.99 0.41,3.71 -0.03,3.71 -0.48,3.70 -0.92,3.59 -1.36,3.48 -1.75,3.26 -2.15,3.05 -2.48,2.75 -2.82,2.45 -3.07,2.07 -3.32,1.70 -3.48,1.28 -3.63,0.85 -3.68,0.40 -3.73,-0.03 -3.67,-0.48 -3.62,-0.93 -3.45,-1.35 -3.29,-1.77 -3.03,-2.13 -2.77,-2.50 -2.43,-2.80 -2.09,-3.09 -1.69,-3.30 -1.28,-3.50 -0.85,-3.61 -0.41,-3.71 -0.41,-3.71 L -0.41,-3.71 Z"/></g><g transform="translate(210.00000000000017 10) rotate(0 -0.9999847412109375 37.999992370605526)" stroke="none"><path fill="#1e1e1e" d="M 3.91,0.55 Q 3.91,0.55 3.21,4.56 2.51,8.57 2.14,14.11 1.76,19.66 1.56,25.50 1.35,31.35 1.22,37.28 1.10,43.22 1.03,48.04 0.95,52.87 1.01,56.64 1.07,60.42 1.26,63.17 1.45,65.93 1.62,70.05 1.79,74.18 1.69,74.78 1.59,75.39 1.30,75.93 1.02,76.47 0.57,76.90 0.12,77.32 -0.42,77.57 -0.98,77.83 -1.59,77.90 -2.20,77.96 -2.80,77.83 -3.40,77.70 -3.93,77.38 -4.45,77.07 -4.85,76.60 -5.25,76.13 -5.47,75.56 -5.70,74.99 -5.73,74.38 -5.77,73.76 -5.60,73.17 -5.44,72.58 -5.09,72.07 -4.75,71.56 -4.26,71.19 -3.77,70.82 -3.19,70.63 -2.61,70.43 -1.99,70.43 -1.38,70.43 -0.80,70.63 -0.21,70.82 0.26,71.20 0.75,71.57 1.10,72.08 1.44,72.58 1.60,73.18 1.77,73.77 1.73,74.38 1.70,74.99 1.47,75.56 1.25,76.13 0.85,76.60 0.45,77.07 -0.07,77.39 -0.59,77.70 -1.19,77.83 -1.79,77.96 -2.40,77.90 -3.01,77.83 -3.57,77.57 -4.13,77.31 -4.57,76.89 -5.02,76.47 -5.30,75.93 -5.59,75.38 -5.69,74.78 -5.79,74.17 -5.79,74.17 -5.79,74.17 -5.61,70.05 -5.44,65.92 -5.24,63.16 -5.04,60.40 -4.97,56.62 -4.90,52.84 -4.93,48.01 -4.97,43.17 -5.01,37.20 -5.04,31.24 -5.04,25.30 -5.04,19.37 -4.93,13.45 -4.81,7.52 -4.36,3.48 -3.91,-0.55 -3.79,-1.02 -3.67,-1.48 -3.44,-1.89 -3.21,-2.31 -2.88,-2.66 -2.56,-3.01 -2.16,-3.28 -1.76,-3.54 -1.31,-3.70 -0.86,-3.86 -0.39,-3.91 0.08,-3.95 0.55,-3.89 1.02,-3.82 1.47,-3.64 1.91,-3.46 2.30,-3.18 2.68,-2.90 2.99,-2.54 3.30,-2.17 3.51,-1.75 3.73,-1.32 3.83,-0.85 3.93,-0.39 3.92,0.08 3.91,0.56 3.91,0.56 L 3.91,0.55 Z"/></g><g transform="translate(244.00001525878923 11.999969482421875) rotate(0 0.9999847412109375 36.000022888183594)" stroke="none"><path fill="#1e1e1e" d="M 4.90,0 Q 4.90,0 4.61,5.17 4.31,10.35 4.17,14.26 4.03,18.18 4.65,20.58 5.27,22.99 5.92,26.96 6.58,30.92 6.85,33.56 7.13,36.19 7.30,38.90 7.47,41.61 7.60,44.56 7.73,47.50 7.85,49.92 7.96,52.33 8.04,55.23 8.13,58.12 8.21,60.28 8.29,62.45 8.38,66.91 8.48,71.37 8.31,72.40 8.14,73.44 7.65,74.36 7.16,75.29 6.39,76.01 5.63,76.73 4.68,77.17 3.73,77.61 2.69,77.73 1.64,77.84 0.62,77.61 -0.40,77.39 -1.29,76.85 -2.19,76.31 -2.87,75.51 -3.55,74.71 -3.94,73.73 -4.33,72.76 -4.38,71.71 -4.44,70.66 -4.16,69.65 -3.88,68.64 -3.29,67.77 -2.70,66.91 -1.87,66.27 -1.03,65.64 -0.04,65.30 0.95,64.97 2.00,64.97 3.04,64.97 4.04,65.30 5.03,65.64 5.87,66.27 6.70,66.91 7.29,67.78 7.88,68.64 8.16,69.66 8.44,70.67 8.38,71.71 8.33,72.76 7.94,73.74 7.55,74.71 6.87,75.51 6.19,76.31 5.29,76.85 4.39,77.39 3.37,77.61 2.34,77.84 1.30,77.73 0.26,77.61 -0.68,77.17 -1.63,76.73 -2.40,76.01 -3.16,75.29 -3.65,74.36 -4.14,73.43 -4.31,72.40 -4.48,71.36 -4.48,71.36 -4.48,71.37 -4.38,66.91 -4.29,62.45 -4.21,60.28 -4.13,58.12 -4.04,55.23 -3.96,52.33 -3.85,49.92 -3.73,47.51 -3.61,44.57 -3.48,41.63 -3.33,39.00 -3.18,36.36 -3.03,33.90 -2.88,31.44 -2.93,28.06 -2.97,24.67 -3.50,21.44 -4.03,18.21 -4.17,14.28 -4.31,10.35 -4.61,5.17 -4.90,0 -4.83,-0.58 -4.76,-1.17 -4.55,-1.72 -4.34,-2.28 -4.00,-2.76 -3.67,-3.25 -3.22,-3.64 -2.78,-4.03 -2.26,-4.31 -1.73,-4.58 -1.16,-4.72 -0.59,-4.87 0.00,-4.87 0.59,-4.87 1.16,-4.72 1.73,-4.58 2.26,-4.31 2.78,-4.03 3.22,-3.64 3.67,-3.25 4.00,-2.76 4.34,-2.27 4.55,-1.72 4.76,-1.17 4.83,-0.58 4.90,0.00 4.90,0.00 L 4.90,0 Z"/></g><g transform="translate(250.00000000000017 37.99995422363281) rotate(0 212.99999237060567 1.0000228881835938)" stroke="none"><path fill="#1e1e1e" d="M 0,-3.14 Q 0,-3.14 4.02,-3.12 8.05,-3.11 20.68,-3.04 33.32,-2.98 39.84,-2.93 46.36,-2.88 56.60,-2.84 66.85,-2.81 78.10,-2.78 89.36,-2.76 102.19,-2.74 115.02,-2.72 126.80,-2.71 138.58,-2.69 150.49,-2.68 162.39,-2.67 173.78,-2.67 185.16,-2.66 196.90,-2.65 208.64,-2.65 219.38,-2.65 230.12,-2.64 239.86,-2.64 249.60,-2.64 257.76,-2.63 265.93,-2.63 272.85,-2.63 279.77,-2.63 283.86,-2.67 287.95,-2.70 291.41,-2.85 294.87,-3.00 298.94,-3.42 303.01,-3.85 306.78,-4.13 310.54,-4.42 313.93,-4.66 317.31,-4.91 320.62,-5.09 323.94,-5.28 329.13,-4.94 334.32,-4.60 339.98,-4.34 345.64,-4.08 351.67,-3.30 357.70,-2.52 362.40,-2.14 367.09,-1.76 369.69,-1.83 372.29,-1.90 376.92,-2.07 381.56,-2.25 383.99,-2.35 386.41,-2.46 389.74,-2.43 393.07,-2.40 397.63,-2.59 402.19,-2.77 405.01,-2.79 407.83,-2.82 410.93,-3.02 414.03,-3.22 416.81,-3.37 419.58,-3.53 422.44,-3.64 425.29,-3.75 426.21,-3.60 427.13,-3.45 427.95,-3.01 428.78,-2.57 429.42,-1.90 430.06,-1.22 430.45,-0.38 430.84,0.46 430.94,1.38 431.04,2.31 430.84,3.22 430.64,4.12 430.16,4.92 429.68,5.72 428.97,6.32 428.26,6.92 427.40,7.27 426.53,7.61 425.60,7.66 424.67,7.71 423.78,7.46 422.88,7.22 422.11,6.69 421.34,6.17 420.78,5.43 420.21,4.69 419.92,3.81 419.62,2.92 419.62,1.99 419.62,1.06 419.92,0.18 420.21,-0.69 420.78,-1.43 421.34,-2.17 422.11,-2.69 422.88,-3.22 423.78,-3.46 424.67,-3.71 425.60,-3.66 426.53,-3.61 427.40,-3.27 428.26,-2.92 428.97,-2.32 429.68,-1.72 430.16,-0.92 430.64,-0.12 430.84,0.78 431.04,1.69 430.94,2.61 430.84,3.54 430.45,4.38 430.05,5.22 429.41,5.90 428.77,6.58 427.95,7.01 427.13,7.45 426.21,7.60 425.29,7.75 425.29,7.75 425.29,7.75 422.44,7.64 419.58,7.53 416.81,7.37 414.03,7.21 410.93,7.02 407.83,6.82 405.01,6.79 402.19,6.77 397.63,6.58 393.06,6.39 389.72,6.41 386.39,6.43 383.95,6.31 381.51,6.19 376.75,5.89 371.99,5.59 369.37,5.31 366.74,5.04 361.86,4.93 356.98,4.82 351.31,4.45 345.63,4.08 339.98,4.34 334.32,4.60 329.13,4.94 323.94,5.28 320.62,5.09 317.31,4.91 313.93,4.66 310.54,4.42 306.78,4.13 303.01,3.85 298.94,3.42 294.87,3.00 291.41,2.85 287.95,2.70 283.86,2.67 279.77,2.63 272.85,2.63 265.93,2.63 257.76,2.63 249.60,2.64 239.86,2.64 230.12,2.64 219.38,2.65 208.64,2.65 196.90,2.65 185.16,2.66 173.78,2.67 162.39,2.67 150.49,2.68 138.58,2.69 126.80,2.71 115.02,2.72 102.19,2.74 89.36,2.76 78.10,2.78 66.85,2.81 56.60,2.84 46.36,2.88 39.84,2.93 33.32,2.98 20.68,3.04 8.05,3.11 4.02,3.12 0,3.14 -0.37,3.09 -0.75,3.05 -1.10,2.91 -1.46,2.78 -1.77,2.56 -2.08,2.35 -2.33,2.06 -2.58,1.78 -2.76,1.45 -2.93,1.11 -3.03,0.74 -3.12,0.37 -3.12,-0.00 -3.12,-0.37 -3.03,-0.74 -2.93,-1.11 -2.76,-1.45 -2.58,-1.78 -2.33,-2.06 -2.08,-2.35 -1.77,-2.56 -1.46,-2.78 -1.10,-2.91 -0.75,-3.05 -0.37,-3.09 0.00,-3.14 0.00,-3.14 L 0,-3.14 Z"/></g><g transform="translate(501.99996948242233 41.999969482421875) rotate(0 2.0000076293945312 57.00000762939459)" stroke="none"><path fill="#1e1e1e" d="M 3.49,0 Q 3.49,0 3.37,5.17 3.26,10.35 3.17,17.72 3.08,25.09 3.14,28.80 3.20,32.51 3.12,38.69 3.04,44.86 2.99,50.36 2.93,55.86 2.89,61.65 2.84,67.44 3.38,73.21 3.92,78.99 4.27,82.69 4.62,86.38 4.87,89.71 5.12,93.04 5.74,96.51 6.37,99.98 6.84,102.18 7.32,104.37 7.61,106.55 7.91,108.73 8.07,110.83 8.23,112.94 8.14,113.63 8.05,114.31 7.75,114.93 7.45,115.55 6.96,116.04 6.47,116.54 5.86,116.85 5.24,117.16 4.56,117.25 3.87,117.35 3.19,117.22 2.52,117.10 1.91,116.76 1.31,116.42 0.85,115.91 0.38,115.40 0.11,114.77 -0.16,114.14 -0.22,113.45 -0.28,112.76 -0.12,112.09 0.04,111.42 0.40,110.83 0.77,110.25 1.31,109.82 1.84,109.38 2.49,109.14 3.14,108.90 3.83,108.87 4.52,108.85 5.18,109.05 5.84,109.25 6.40,109.65 6.97,110.05 7.37,110.61 7.78,111.17 7.98,111.83 8.19,112.48 8.18,113.17 8.16,113.86 7.93,114.51 7.69,115.16 7.26,115.70 6.83,116.24 6.25,116.62 5.67,116.99 5.00,117.16 4.33,117.34 3.65,117.28 2.96,117.23 2.32,116.96 1.69,116.69 1.17,116.23 0.65,115.77 0.31,115.18 -0.02,114.58 -0.16,113.90 -0.29,113.22 -0.29,113.22 -0.29,113.22 -0.26,111.20 -0.24,109.17 -0.22,105.13 -0.20,101.08 -0.81,97.17 -1.42,93.25 -1.38,90.02 -1.34,86.78 -1.48,83.16 -1.62,79.53 -2.23,73.48 -2.84,67.44 -2.89,61.65 -2.93,55.86 -2.99,50.36 -3.04,44.86 -3.12,38.69 -3.20,32.51 -3.14,28.80 -3.08,25.09 -3.17,17.72 -3.26,10.35 -3.37,5.17 -3.49,0 -3.44,-0.41 -3.39,-0.83 -3.24,-1.23 -3.09,-1.62 -2.85,-1.97 -2.61,-2.31 -2.30,-2.59 -1.98,-2.87 -1.61,-3.07 -1.24,-3.27 -0.83,-3.37 -0.42,-3.47 0.00,-3.47 0.42,-3.47 0.83,-3.37 1.24,-3.27 1.61,-3.07 1.98,-2.87 2.30,-2.59 2.61,-2.31 2.85,-1.97 3.09,-1.62 3.24,-1.23 3.39,-0.83 3.44,-0.41 3.49,0.00 3.49,0.00 L 3.49,0 Z"/></g><g transform="translate(505.9999847412114 155.99998474121105) rotate(0 -6.999969482421875 44.00001525878912)" stroke="none"><path fill="#1e1e1e" d="M 2.69,4.03 Q 2.69,4.03 -0.90,6.11 -4.49,8.20 -7.19,9.84 -9.88,11.48 -12.17,12.83 -14.46,14.18 -16.57,15.38 -18.68,16.58 -15.82,17.31 -12.96,18.04 -10.74,19.65 -8.53,21.25 -5.60,22.72 -2.67,24.19 -0.31,26.87 2.03,29.55 3.68,32.07 5.32,34.60 5.19,37.14 5.06,39.69 3.73,41.88 2.39,44.06 -0.32,44.96 -3.05,45.86 -6.30,45.87 -9.55,45.88 -11.97,45.89 -14.39,45.90 -17.48,45.87 -20.57,45.83 -18.40,45.97 -16.24,46.11 -12.44,48.54 -8.65,50.97 -6.24,51.99 -3.83,53.01 -0.98,53.64 1.87,54.28 3.92,55.78 5.97,57.29 6.11,62.43 6.26,67.57 3.94,69.78 1.63,72.00 -0.28,72.98 -2.19,73.96 -6.15,77.37 -10.11,80.78 -5.80,81.32 -1.50,81.86 1.22,82.01 3.94,82.16 7.27,82.15 10.60,82.14 11.52,82.31 12.45,82.47 13.28,82.93 14.11,83.38 14.75,84.07 15.39,84.77 15.77,85.63 16.16,86.49 16.24,87.43 16.33,88.37 16.12,89.29 15.90,90.21 15.40,91.01 14.90,91.82 14.17,92.42 13.45,93.02 12.56,93.35 11.68,93.69 10.74,93.73 9.80,93.76 8.89,93.50 7.98,93.23 7.21,92.69 6.44,92.15 5.88,91.39 5.32,90.63 5.03,89.73 4.74,88.83 4.75,87.89 4.77,86.95 5.08,86.06 5.40,85.17 5.98,84.42 6.56,83.68 7.35,83.16 8.14,82.64 9.05,82.40 9.97,82.16 10.91,82.23 11.85,82.29 12.72,82.66 13.59,83.02 14.30,83.64 15.01,84.26 15.49,85.08 15.96,85.89 16.15,86.82 16.34,87.74 16.23,88.68 16.11,89.62 15.70,90.47 15.29,91.32 14.63,91.99 13.97,92.67 13.13,93.10 12.29,93.53 11.36,93.67 10.43,93.81 10.43,93.81 10.43,93.81 7.02,93.70 3.62,93.59 0.64,93.58 -2.33,93.58 -5.37,93.39 -8.41,93.21 -13.10,90.94 -17.80,88.67 -19.59,86.10 -21.39,83.53 -21.19,80.28 -20.99,77.03 -19.18,74.59 -17.36,72.14 -15.01,69.86 -12.66,67.58 -8.66,64.35 -4.65,61.12 -3.19,63.14 -1.72,65.17 -4.88,64.56 -8.03,63.95 -10.96,62.91 -13.88,61.88 -16.06,60.88 -18.24,59.89 -22.61,56.24 -26.98,52.59 -28.43,49.28 -29.89,45.96 -29.61,43.24 -29.33,40.52 -28.09,38.55 -26.84,36.58 -24.44,35.36 -22.03,34.14 -18.30,34.06 -14.58,33.98 -11.00,34.35 -7.43,34.73 -8.99,33.27 -10.56,31.82 -12.53,30.80 -14.50,29.77 -18.40,26.82 -22.29,23.87 -25.16,21.11 -28.02,18.35 -27.75,15.10 -27.48,11.86 -25.28,10.01 -23.07,8.16 -20.96,7.16 -18.84,6.16 -16.61,5.04 -14.37,3.92 -11.84,2.45 -9.30,0.99 -5.99,-1.51 -2.69,-4.03 -2.16,-4.29 -1.64,-4.56 -1.07,-4.69 -0.50,-4.82 0.07,-4.81 0.66,-4.80 1.22,-4.65 1.79,-4.50 2.30,-4.22 2.81,-3.94 3.25,-3.55 3.68,-3.15 4.00,-2.67 4.33,-2.18 4.52,-1.63 4.72,-1.08 4.78,-0.50 4.84,0.07 4.76,0.65 4.68,1.23 4.47,1.77 4.25,2.32 3.91,2.79 3.57,3.27 3.13,3.65 2.68,4.03 2.68,4.03 L 2.69,4.03 Z"/></g><g transform="translate(514.0000152587895 241.9999694824221) rotate(0 3.9999771118164062 60.00000000000006)" stroke="none"><path fill="#1e1e1e" d="M 3.74,0 Q 3.74,0 3.59,5.73 3.44,11.47 4.43,15.85 5.43,20.23 5.87,24.75 6.32,29.27 6.47,34.09 6.63,38.90 6.79,42.66 6.95,46.41 7.01,50.32 7.08,54.22 7.09,58.18 7.11,62.14 7.77,65.27 8.43,68.40 8.87,71.10 9.31,73.81 9.55,76.74 9.78,79.67 9.97,82.05 10.16,84.44 11.32,87.86 12.49,91.29 12.72,93.90 12.95,96.51 13.06,98.66 13.18,100.80 13.31,104.66 13.45,108.51 13.49,110.66 13.53,112.81 12.54,117.26 11.56,121.71 11.03,122.48 10.50,123.25 9.75,123.80 9.00,124.36 8.11,124.65 7.23,124.93 6.29,124.92 5.36,124.91 4.48,124.61 3.60,124.30 2.87,123.73 2.13,123.15 1.61,122.38 1.10,121.60 0.86,120.70 0.62,119.80 0.68,118.87 0.74,117.94 1.10,117.07 1.45,116.21 2.06,115.51 2.67,114.80 3.48,114.33 4.28,113.86 5.19,113.67 6.11,113.48 7.03,113.59 7.96,113.70 8.80,114.10 9.64,114.50 10.31,115.15 10.98,115.80 11.41,116.63 11.84,117.46 11.98,118.38 12.12,119.30 11.96,120.22 11.80,121.14 11.35,121.96 10.91,122.77 10.22,123.41 9.54,124.04 8.69,124.42 7.84,124.81 6.91,124.90 5.98,124.99 5.07,124.78 4.16,124.57 3.37,124.08 2.58,123.59 1.98,122.87 1.38,122.15 1.05,121.28 0.71,120.41 0.67,119.48 0.63,118.55 0.89,117.65 1.15,116.76 1.15,116.76 1.15,116.76 1.80,114.80 2.45,112.83 2.49,110.69 2.52,108.55 2.53,106.23 2.55,103.91 2.64,100.45 2.73,97.00 2.77,94.58 2.81,92.16 2.25,88.38 1.70,84.60 1.80,82.28 1.90,79.96 1.92,77.23 1.95,74.51 1.90,72.02 1.84,69.52 1.34,65.85 0.83,62.17 0.82,58.23 0.80,54.28 0.79,50.42 0.78,46.56 0.76,42.86 0.75,39.16 0.49,34.56 0.23,29.96 -0.30,25.85 -0.83,21.74 -2.13,16.63 -3.44,11.52 -3.59,5.76 -3.74,0 -3.69,-0.44 -3.64,-0.89 -3.48,-1.32 -3.32,-1.74 -3.06,-2.11 -2.80,-2.48 -2.46,-2.78 -2.12,-3.08 -1.72,-3.29 -1.32,-3.50 -0.89,-3.61 -0.45,-3.72 0.00,-3.72 0.45,-3.72 0.89,-3.61 1.32,-3.50 1.73,-3.29 2.13,-3.08 2.46,-2.78 2.80,-2.48 3.06,-2.11 3.32,-1.74 3.48,-1.31 3.64,-0.89 3.69,-0.44 3.74,0.00 3.74,0.00 L 3.74,0 Z"/></g><g transform="translate(10 151.999969482422) rotate(0 15 22.00000762939453)" stroke="none"><path fill="#1e1e1e" d="M 3.51,-1.05 Q 3.51,-1.05 5.10,4.73 6.69,10.52 7.97,14.02 9.24,17.52 10.83,21.28 12.41,25.04 13.38,28.01 14.36,30.99 15.80,34.47 17.25,37.96 17.31,38.38 17.37,38.80 17.32,39.22 17.28,39.65 17.13,40.05 16.99,40.45 16.75,40.80 16.51,41.15 16.20,41.44 15.88,41.73 15.51,41.93 15.14,42.13 14.72,42.24 14.31,42.35 13.89,42.35 13.46,42.36 13.05,42.26 12.63,42.17 12.25,41.97 11.87,41.78 11.55,41.50 11.23,41.23 10.98,40.88 10.74,40.53 10.58,40.14 10.43,39.74 13.07,35.63 15.72,31.52 16.48,27.74 17.23,23.97 19.53,17.84 21.84,11.71 23.84,7.06 25.83,2.40 26.17,1.92 26.50,1.45 26.96,1.11 27.43,0.76 27.98,0.59 28.53,0.41 29.11,0.42 29.69,0.42 30.23,0.62 30.78,0.81 31.23,1.16 31.69,1.52 32.01,2.00 32.33,2.49 32.47,3.05 32.62,3.61 32.58,4.18 32.54,4.76 32.32,5.30 32.10,5.83 31.72,6.27 31.34,6.70 30.84,6.99 30.34,7.29 29.77,7.40 29.20,7.52 28.63,7.45 28.06,7.38 27.53,7.13 27.01,6.88 26.60,6.47 26.18,6.07 25.92,5.56 25.65,5.04 25.57,4.47 25.48,3.90 25.58,3.33 25.69,2.76 25.96,2.25 26.24,1.74 26.67,1.35 27.09,0.96 27.62,0.72 28.15,0.49 28.73,0.43 29.30,0.38 29.87,0.51 30.43,0.64 30.92,0.95 31.41,1.25 31.78,1.70 32.15,2.14 32.36,2.68 32.56,3.23 32.59,3.80 32.61,4.38 32.45,4.94 32.29,5.49 32.29,5.49 32.29,5.49 30.04,9.68 27.80,13.87 25.81,19.65 23.82,25.42 22.57,30.71 21.33,36.00 19.29,36.98 17.25,37.96 17.31,38.38 17.37,38.80 17.32,39.22 17.28,39.65 17.13,40.05 16.99,40.45 16.75,40.80 16.51,41.15 16.20,41.44 15.88,41.73 15.51,41.93 15.14,42.13 14.72,42.24 14.31,42.35 13.89,42.35 13.46,42.36 13.05,42.26 12.63,42.17 12.25,41.97 11.88,41.78 11.55,41.50 11.23,41.23 10.98,40.88 10.74,40.53 10.58,40.14 10.43,39.74 8.96,36.27 7.49,32.79 7.01,30.22 6.54,27.64 4.71,23.74 2.88,19.84 1.54,16.16 0.20,12.47 -1.65,6.76 -3.51,1.05 -3.59,0.61 -3.66,0.18 -3.63,-0.25 -3.60,-0.70 -3.46,-1.12 -3.33,-1.54 -3.09,-1.91 -2.86,-2.29 -2.55,-2.60 -2.23,-2.91 -1.85,-3.14 -1.47,-3.36 -1.04,-3.49 -0.62,-3.61 -0.18,-3.64 0.26,-3.66 0.69,-3.57 1.13,-3.49 1.53,-3.30 1.93,-3.12 2.27,-2.84 2.62,-2.56 2.89,-2.21 3.16,-1.86 3.34,-1.46 3.51,-1.05 3.51,-1.05 L 3.51,-1.05 Z"/></g><g transform="translate(48.000030517578125 171.999969482422) rotate(0 7.999992370605469 0)" stroke="none"><path fill="#1e1e1e" d="M 0,-4.78 Q 0,-4.78 2.87,-4.80 5.75,-4.81 8.12,-4.88 10.49,-4.95 12.74,-5.02 15.00,-5.09 15.81,-4.96 16.63,-4.82 17.36,-4.44 18.08,-4.05 18.65,-3.45 19.22,-2.85 19.56,-2.11 19.91,-1.36 20.00,-0.54 20.09,0.27 19.91,1.08 19.73,1.88 19.31,2.59 18.88,3.29 18.26,3.83 17.63,4.36 16.86,4.67 16.10,4.97 15.27,5.02 14.45,5.06 13.65,4.84 12.86,4.62 12.18,4.16 11.50,3.69 11.00,3.04 10.50,2.38 10.23,1.60 9.97,0.82 9.97,-0.00 9.97,-0.82 10.23,-1.60 10.50,-2.38 11.00,-3.04 11.50,-3.70 12.18,-4.16 12.86,-4.62 13.66,-4.84 14.45,-5.06 15.27,-5.02 16.10,-4.97 16.86,-4.67 17.63,-4.36 18.26,-3.83 18.89,-3.29 19.31,-2.59 19.73,-1.88 19.91,-1.07 20.09,-0.27 20.00,0.54 19.91,1.36 19.56,2.11 19.22,2.86 18.65,3.45 18.08,4.05 17.35,4.44 16.63,4.82 15.81,4.96 15.00,5.09 15.00,5.09 15.00,5.09 12.74,5.02 10.49,4.95 8.12,4.88 5.75,4.81 2.87,4.80 0,4.78 -0.57,4.71 -1.14,4.64 -1.68,4.44 -2.22,4.23 -2.69,3.91 -3.17,3.58 -3.55,3.15 -3.93,2.71 -4.20,2.20 -4.47,1.69 -4.61,1.13 -4.75,0.57 -4.75,-0.00 -4.75,-0.57 -4.61,-1.13 -4.47,-1.69 -4.20,-2.20 -3.93,-2.71 -3.55,-3.15 -3.17,-3.58 -2.69,-3.91 -2.22,-4.23 -1.68,-4.44 -1.14,-4.64 -0.57,-4.71 0.00,-4.78 0.00,-4.78 L 0,-4.78 Z"/></g><g transform="translate(51.999969482421875 184.00001525878918) rotate(0 0 17.999992370605526)" stroke="none"><path fill="#1e1e1e" d="M 4.39,0 Q 4.39,0 4.35,3.44 4.31,6.89 4.09,11.24 3.86,15.58 3.86,19.15 3.85,22.72 3.90,25.96 3.96,29.20 4.07,31.99 4.19,34.77 4.08,35.44 3.97,36.11 3.65,36.71 3.34,37.31 2.84,37.77 2.35,38.24 1.73,38.53 1.12,38.81 0.44,38.88 -0.22,38.96 -0.89,38.81 -1.55,38.67 -2.13,38.32 -2.71,37.97 -3.15,37.45 -3.59,36.93 -3.84,36.30 -4.09,35.67 -4.13,34.99 -4.17,34.31 -3.98,33.66 -3.80,33.01 -3.42,32.44 -3.04,31.88 -2.50,31.47 -1.96,31.06 -1.32,30.84 -0.67,30.63 0.00,30.63 0.67,30.63 1.32,30.84 1.96,31.06 2.50,31.47 3.04,31.88 3.42,32.44 3.80,33.01 3.98,33.66 4.17,34.32 4.13,34.99 4.09,35.67 3.84,36.30 3.59,36.93 3.15,37.45 2.71,37.97 2.13,38.32 1.55,38.67 0.88,38.81 0.22,38.96 -0.44,38.88 -1.12,38.81 -1.73,38.53 -2.35,38.24 -2.84,37.77 -3.34,37.31 -3.65,36.71 -3.97,36.11 -4.08,35.44 -4.19,34.77 -4.19,34.77 -4.19,34.77 -4.07,31.99 -3.96,29.20 -3.90,25.96 -3.85,22.72 -3.86,19.15 -3.86,15.58 -4.09,11.24 -4.31,6.89 -4.35,3.44 -4.39,0 -4.33,-0.52 -4.27,-1.05 -4.08,-1.54 -3.89,-2.04 -3.59,-2.48 -3.29,-2.91 -2.89,-3.26 -2.49,-3.62 -2.02,-3.86 -1.56,-4.11 -1.04,-4.24 -0.53,-4.36 0.00,-4.36 0.53,-4.36 1.04,-4.24 1.56,-4.11 2.03,-3.86 2.49,-3.62 2.89,-3.26 3.29,-2.91 3.59,-2.48 3.89,-2.04 4.08,-1.54 4.27,-1.05 4.33,-0.52 4.39,0.00 4.39,0.00 L 4.39,0 Z"/></g><g transform="translate(64.00001525878906 184.00001525878918) rotate(0 22.999992370605497 21.999969482421932)" stroke="none"><path fill="#1e1e1e" d="M 4.34,-1.24 Q 4.34,-1.24 5.26,2.84 6.19,6.93 7.61,11.46 9.03,15.98 10.21,20.99 11.39,26.00 12.07,29.33 12.74,32.67 13.16,34.57 13.57,36.47 13.59,36.95 13.61,37.43 13.52,37.90 13.43,38.37 13.23,38.80 13.02,39.23 12.72,39.61 12.42,39.98 12.04,40.27 11.66,40.56 11.22,40.75 10.78,40.94 10.31,41.02 9.84,41.10 9.36,41.06 8.89,41.03 8.43,40.88 7.98,40.73 7.57,40.48 7.16,40.22 6.83,39.88 6.50,39.54 6.26,39.13 6.01,38.71 5.88,38.25 5.74,37.79 5.77,33.03 5.80,28.26 5.70,25.88 5.59,23.50 6.15,19.66 6.70,15.82 8.48,13.06 10.25,10.29 12.56,9.66 14.86,9.04 17.44,7.28 20.02,5.52 23.04,5.11 26.07,4.70 29.44,4.57 32.82,4.44 36.50,6.70 40.19,8.95 41.74,10.80 43.30,12.65 44.58,15.51 45.87,18.36 46.47,21.05 47.08,23.73 48.15,28.59 49.22,33.45 49.54,36.64 49.85,39.82 49.93,40.94 50.00,42.06 49.95,42.79 49.89,43.52 49.67,44.21 49.44,44.91 49.05,45.52 48.66,46.14 48.14,46.65 47.62,47.16 46.99,47.52 46.36,47.89 45.66,48.10 44.96,48.30 44.23,48.34 43.50,48.37 42.78,48.23 42.07,48.08 41.41,47.77 40.75,47.46 40.18,47.01 39.61,46.55 39.17,45.97 38.73,45.38 38.44,44.71 38.15,44.04 38.03,43.33 37.91,42.61 39.04,39.41 40.17,36.22 40.72,35.41 41.27,34.61 42.05,34.02 42.83,33.44 43.76,33.13 44.68,32.82 45.66,32.83 46.63,32.83 47.56,33.15 48.48,33.47 49.25,34.06 50.03,34.66 50.57,35.47 51.11,36.28 51.37,37.22 51.63,38.16 51.57,39.13 51.51,40.11 51.14,41.01 50.78,41.92 50.14,42.66 49.51,43.40 48.67,43.89 47.83,44.39 46.87,44.60 45.92,44.80 44.95,44.69 43.98,44.58 43.10,44.17 42.22,43.75 41.51,43.08 40.81,42.40 40.35,41.54 39.90,40.67 39.75,39.71 39.60,38.75 39.76,37.78 39.92,36.82 40.39,35.96 40.85,35.10 41.56,34.44 42.27,33.77 43.16,33.36 44.05,32.96 45.02,32.86 45.99,32.76 46.94,32.97 47.89,33.19 48.72,33.70 49.56,34.20 50.18,34.95 50.81,35.70 51.17,36.61 51.52,37.52 51.57,38.49 51.62,39.46 51.35,40.40 51.09,41.34 51.09,41.34 51.09,41.34 50.55,41.70 50.00,42.06 49.95,42.79 49.89,43.52 49.67,44.21 49.44,44.90 49.05,45.52 48.66,46.14 48.14,46.65 47.62,47.16 46.99,47.52 46.36,47.89 45.66,48.10 44.96,48.30 44.23,48.34 43.50,48.37 42.78,48.23 42.07,48.08 41.41,47.77 40.75,47.46 40.18,47.01 39.61,46.55 39.17,45.97 38.73,45.38 38.44,44.72 38.15,44.05 38.03,43.33 37.91,42.61 37.94,40.30 37.97,37.98 37.69,34.46 37.40,30.94 36.54,28.47 35.68,26.00 34.77,22.75 33.86,19.50 32.69,17.58 31.53,15.67 29.34,15.81 27.16,15.95 24.84,16.14 22.51,16.33 19.28,16.94 16.04,17.55 15.19,20.56 14.35,23.57 14.21,25.97 14.06,28.38 13.82,32.43 13.57,36.47 13.59,36.95 13.61,37.43 13.52,37.90 13.43,38.37 13.23,38.80 13.02,39.23 12.72,39.61 12.42,39.98 12.04,40.27 11.66,40.56 11.22,40.75 10.78,40.94 10.31,41.02 9.84,41.10 9.36,41.06 8.89,41.03 8.43,40.88 7.98,40.73 7.57,40.48 7.16,40.22 6.83,39.88 6.50,39.54 6.26,39.13 6.01,38.71 5.88,38.25 5.74,37.80 5.70,35.83 5.65,33.86 5.24,30.79 4.84,27.73 3.47,23.09 2.11,18.45 0.26,13.81 -1.59,9.16 -2.96,5.20 -4.34,1.24 -4.42,0.70 -4.51,0.16 -4.46,-0.37 -4.41,-0.91 -4.24,-1.43 -4.07,-1.95 -3.77,-2.40 -3.48,-2.86 -3.09,-3.24 -2.69,-3.61 -2.22,-3.88 -1.75,-4.15 -1.23,-4.30 -0.70,-4.45 -0.16,-4.47 0.37,-4.49 0.91,-4.38 1.44,-4.27 1.93,-4.04 2.42,-3.80 2.84,-3.46 3.26,-3.11 3.59,-2.67 3.91,-2.24 4.12,-1.74 4.34,-1.23 4.34,-1.23 L 4.34,-1.24 Z"/></g><g transform="translate(680.0000762939459 174.00001525878918) rotate(0 40.00000000000006 45.00000000000006)" stroke="none"><path fill="#1e1e1e" d="M 3.57,-0.89 Q 3.57,-0.89 5.15,6.04 6.74,12.97 10.20,22.66 13.65,32.36 16.77,38.71 19.89,45.05 24.69,55.34 29.49,65.62 32.56,70.39 35.64,75.17 37.67,78.42 39.70,81.67 43.42,78.66 47.15,75.65 50.07,71.28 53.00,66.90 56.49,59.47 59.99,52.04 62.70,46.49 65.41,40.94 67.67,34.71 69.93,28.47 71.50,24.56 73.07,20.65 74.18,17.29 75.29,13.92 75.85,11.16 76.40,8.40 76.62,7.90 76.84,7.40 77.21,7.00 77.58,6.60 78.06,6.34 78.54,6.07 79.08,5.97 79.61,5.88 80.15,5.96 80.69,6.04 81.18,6.29 81.67,6.53 82.05,6.93 82.43,7.32 82.67,7.81 82.91,8.30 82.97,8.84 83.04,9.39 82.93,9.92 82.82,10.46 82.55,10.93 82.27,11.40 81.86,11.76 81.45,12.12 80.95,12.33 80.44,12.54 79.90,12.58 79.35,12.62 78.83,12.48 78.30,12.34 77.84,12.04 77.38,11.74 77.04,11.31 76.71,10.88 76.52,10.37 76.34,9.85 76.33,9.31 76.33,8.76 76.49,8.24 76.66,7.72 76.98,7.28 77.31,6.84 77.75,6.53 78.20,6.21 78.72,6.06 79.25,5.90 79.79,5.92 80.34,5.95 80.85,6.14 81.36,6.33 81.78,6.68 82.21,7.03 82.50,7.49 82.78,7.96 82.91,8.49 83.04,9.02 82.99,9.56 82.93,10.11 82.93,10.11 82.94,10.11 82.00,13.07 81.06,16.02 79.71,19.39 78.36,22.76 76.85,26.58 75.33,30.40 73.04,36.94 70.75,43.48 68.17,49.05 65.59,54.61 62.04,62.50 58.48,70.40 55.66,75.03 52.83,79.67 49.53,84.15 46.22,88.64 43.19,89.33 40.16,90.02 37.36,87.38 34.56,84.74 32.72,81.50 30.88,78.27 27.54,73.20 24.21,68.13 19.34,57.95 14.47,47.78 11.07,41.17 7.67,34.56 3.91,24.59 0.15,14.62 -1.70,7.75 -3.57,0.89 -3.62,0.45 -3.68,0.01 -3.63,-0.42 -3.57,-0.86 -3.42,-1.28 -3.26,-1.70 -3.01,-2.06 -2.76,-2.43 -2.43,-2.72 -2.10,-3.02 -1.70,-3.23 -1.31,-3.43 -0.88,-3.54 -0.45,-3.65 -0.01,-3.65 0.43,-3.65 0.86,-3.55 1.29,-3.44 1.68,-3.24 2.08,-3.03 2.41,-2.74 2.74,-2.45 3.00,-2.08 3.25,-1.72 3.41,-1.30 3.57,-0.89 3.57,-0.89 L 3.57,-0.89 Z"/></g><g transform="translate(770.000076293946 215.99998474121116) rotate(0 10 27.00000762939453)" stroke="none"><path fill="#1e1e1e" d="M 4.33,0 Q 4.33,0 4.10,5.75 3.88,11.5 3.71,16.24 3.54,20.98 3.42,25.87 3.29,30.76 3.20,35.14 3.11,39.52 3.27,42.52 3.43,45.52 4.65,47.66 5.86,49.79 7.23,48.06 8.60,46.33 10.25,44.67 11.89,43.01 13.06,39.49 14.22,35.97 14.35,32.35 14.49,28.73 14.45,25.52 14.41,22.30 11.72,22.27 9.03,22.24 6.78,22.22 4.53,22.20 3.55,22.02 2.56,21.85 1.68,21.36 0.80,20.88 0.13,20.14 -0.54,19.40 -0.95,18.49 -1.36,17.57 -1.45,16.57 -1.54,15.58 -1.31,14.60 -1.08,13.63 -0.56,12.77 -0.03,11.92 0.74,11.29 1.51,10.65 2.45,10.29 3.39,9.93 4.39,9.89 5.39,9.86 6.35,10.14 7.31,10.42 8.13,11.00 8.95,11.57 9.55,12.38 10.14,13.18 10.45,14.14 10.76,15.09 10.74,16.10 10.73,17.10 10.39,18.04 10.06,18.99 9.44,19.78 8.82,20.57 7.98,21.12 7.14,21.67 6.17,21.92 5.20,22.17 4.20,22.10 3.20,22.04 2.28,21.65 1.35,21.26 0.60,20.60 -0.15,19.94 -0.65,19.08 -1.15,18.21 -1.35,17.23 -1.55,16.25 -1.43,15.25 -1.31,14.26 -0.87,13.35 -0.44,12.45 0.25,11.73 0.95,11.02 1.84,10.56 2.74,10.10 3.73,9.96 4.72,9.81 4.72,9.81 4.72,9.81 8.69,10.07 12.66,10.33 16.11,11.64 19.57,12.95 21.70,14.99 23.84,17.04 24.68,19.48 25.52,21.92 25.36,25.60 25.20,29.27 25.02,31.47 24.84,33.67 24.47,36.09 24.10,38.50 23.26,41.23 22.41,43.96 20.63,46.99 18.84,50.03 16.94,51.79 15.03,53.55 12.53,55.25 10.02,56.95 4.87,56.05 -0.28,55.15 -1.38,53.28 -2.47,51.42 -2.95,48.49 -3.43,45.57 -3.27,42.54 -3.11,39.52 -3.20,35.14 -3.29,30.76 -3.42,25.87 -3.54,20.98 -3.71,16.24 -3.88,11.5 -4.10,5.75 -4.33,0 -4.27,-0.51 -4.20,-1.03 -4.02,-1.52 -3.83,-2.01 -3.54,-2.44 -3.24,-2.87 -2.85,-3.21 -2.46,-3.56 -1.99,-3.80 -1.53,-4.05 -1.02,-4.17 -0.52,-4.30 0.00,-4.30 0.52,-4.30 1.02,-4.17 1.53,-4.05 1.99,-3.80 2.46,-3.56 2.85,-3.21 3.24,-2.87 3.54,-2.44 3.83,-2.01 4.02,-1.52 4.20,-1.03 4.27,-0.51 4.33,0.00 4.33,0.00 L 4.33,0 Z"/></g><g transform="translate(802.0000457763679 224.0000152587893) rotate(0 15.999984741210938 22.99999237060547)" stroke="none"><path fill="#1e1e1e" d="M 4.68,0 Q 4.68,0 4.41,4.59 4.14,9.19 3.94,14.02 3.74,18.85 4.25,22.35 4.76,25.86 5.15,28.71 5.54,31.56 6.84,33.62 8.15,35.68 11.05,32.03 13.95,28.39 15.16,25.79 16.37,23.19 16.38,19.73 16.39,16.27 16.28,13.92 16.17,11.56 16.27,10.87 16.36,10.18 16.62,9.52 16.88,8.87 17.28,8.30 17.69,7.73 18.22,7.27 18.75,6.82 19.37,6.50 20.00,6.18 20.68,6.02 21.36,5.87 22.06,5.88 22.76,5.88 23.44,6.06 24.12,6.24 24.73,6.57 25.35,6.91 25.87,7.38 26.39,7.85 26.78,8.43 27.17,9.01 27.40,9.67 27.64,10.33 27.72,11.03 27.79,11.72 28.18,14.17 28.57,16.61 29.04,21.42 29.51,26.22 30.65,30.24 31.78,34.25 33.51,37.35 35.25,40.46 35.47,41.15 35.68,41.85 35.67,42.58 35.66,43.30 35.41,43.99 35.16,44.67 34.71,45.24 34.26,45.81 33.65,46.21 33.04,46.60 32.34,46.79 31.63,46.97 30.91,46.91 30.18,46.86 29.51,46.58 28.84,46.29 28.29,45.81 27.75,45.33 27.39,44.70 27.02,44.07 26.88,43.35 26.74,42.64 26.83,41.92 26.93,41.20 27.24,40.54 27.56,39.89 28.07,39.37 28.58,38.85 29.23,38.53 29.88,38.20 30.60,38.10 31.32,37.99 32.04,38.12 32.75,38.26 33.39,38.61 34.03,38.96 34.52,39.50 35.01,40.04 35.30,40.71 35.59,41.37 35.65,42.10 35.72,42.82 35.55,43.53 35.38,44.24 34.99,44.85 34.60,45.47 34.04,45.93 33.47,46.39 32.79,46.64 32.11,46.90 31.38,46.92 30.66,46.95 29.96,46.74 29.26,46.53 28.67,46.11 28.08,45.69 27.65,45.10 27.22,44.51 27.22,44.51 27.22,44.51 25.50,40.78 23.78,37.05 21.92,32.47 20.05,27.90 18.88,23.33 17.71,18.75 16.94,15.16 16.17,11.56 16.27,10.87 16.36,10.18 16.62,9.52 16.88,8.87 17.28,8.30 17.69,7.73 18.22,7.27 18.75,6.82 19.37,6.50 20.00,6.18 20.68,6.02 21.36,5.87 22.06,5.88 22.76,5.88 23.44,6.06 24.12,6.24 24.73,6.57 25.35,6.91 25.87,7.38 26.39,7.85 26.78,8.43 27.17,9.01 27.40,9.67 27.64,10.33 27.72,11.03 27.79,11.72 27.72,12.84 27.65,13.95 27.45,17.04 27.24,20.13 26.65,23.09 26.06,26.06 23.73,29.98 21.40,33.89 19.85,35.86 18.31,37.82 15.18,42.47 12.05,47.12 9.91,47.58 7.76,48.05 4.40,45.11 1.03,42.16 0.03,40.02 -0.95,37.89 -1.61,35.09 -2.26,32.28 -2.36,29.62 -2.46,26.96 -3.10,22.91 -3.74,18.86 -3.94,14.03 -4.14,9.19 -4.41,4.59 -4.68,0 -4.61,-0.56 -4.54,-1.12 -4.34,-1.64 -4.14,-2.17 -3.82,-2.64 -3.50,-3.10 -3.08,-3.47 -2.66,-3.85 -2.16,-4.11 -1.66,-4.37 -1.11,-4.51 -0.56,-4.64 0.00,-4.64 0.56,-4.64 1.11,-4.51 1.66,-4.37 2.16,-4.11 2.66,-3.85 3.08,-3.47 3.50,-3.10 3.82,-2.64 4.14,-2.17 4.34,-1.64 4.54,-1.12 4.61,-0.55 4.68,0.00 4.68,0.00 L 4.68,0 Z"/></g><g transform="translate(834.0000152587897 235.99998474121116) rotate(0 14.00001525878912 -2.9999923706054688)" stroke="none"><path fill="#1e1e1e" d="M -1.72,-4.30 Q -1.72,-4.30 1.15,-5.44 4.03,-6.59 7.06,-7.67 10.09,-8.76 13.50,-9.33 16.90,-9.90 21.35,-10.31 25.80,-10.72 26.59,-10.65 27.37,-10.57 28.09,-10.25 28.80,-9.92 29.38,-9.39 29.96,-8.85 30.33,-8.16 30.71,-7.47 30.84,-6.70 30.98,-5.92 30.86,-5.15 30.74,-4.37 30.38,-3.67 30.01,-2.97 29.45,-2.43 28.88,-1.88 28.17,-1.54 27.46,-1.20 26.68,-1.11 25.90,-1.02 25.13,-1.18 24.36,-1.34 23.68,-1.74 23.01,-2.14 22.49,-2.73 21.98,-3.33 21.68,-4.06 21.38,-4.78 21.33,-5.57 21.28,-6.35 21.48,-7.11 21.69,-7.87 22.12,-8.53 22.56,-9.18 23.18,-9.66 23.80,-10.15 24.54,-10.40 25.28,-10.66 26.07,-10.67 26.86,-10.68 27.60,-10.43 28.35,-10.19 28.98,-9.72 29.61,-9.25 30.06,-8.60 30.51,-7.96 30.72,-7.20 30.94,-6.45 30.91,-5.66 30.87,-4.88 30.59,-4.14 30.30,-3.41 29.80,-2.80 29.30,-2.20 28.63,-1.79 27.96,-1.38 27.19,-1.20 26.43,-1.02 26.43,-1.02 26.43,-1.02 22.36,-0.89 18.29,-0.75 15.74,-0.42 13.19,-0.09 10.32,0.95 7.46,1.99 4.59,3.14 1.72,4.30 1.18,4.44 0.64,4.59 0.08,4.60 -0.47,4.61 -1.02,4.48 -1.56,4.36 -2.06,4.11 -2.56,3.86 -2.98,3.49 -3.41,3.13 -3.73,2.68 -4.06,2.22 -4.27,1.70 -4.48,1.19 -4.55,0.63 -4.63,0.08 -4.57,-0.47 -4.52,-1.02 -4.33,-1.55 -4.14,-2.08 -3.83,-2.54 -3.52,-3.01 -3.11,-3.38 -2.70,-3.76 -2.21,-4.03 -1.72,-4.30 -1.72,-4.30 L -1.72,-4.30 Z"/></g><g transform="translate(852.000045776368 215.99998474121116) rotate(0 14.000015258789062 27.00000762939453)" stroke="none"><path fill="#1e1e1e" d="M 4.35,0 Q 4.35,0 4.41,2.87 4.46,5.75 4.49,8.68 4.53,11.62 5.08,14.18 5.63,16.73 5.66,22.36 5.69,27.99 6.16,32.96 6.63,37.94 7.39,41.70 8.15,45.46 11.21,44.93 14.27,44.41 16.08,42.73 17.89,41.06 20.00,39.61 22.11,38.15 22.53,36.49 22.95,34.83 23.43,34.16 23.90,33.50 24.57,33.03 25.23,32.55 26.01,32.32 26.79,32.08 27.60,32.10 28.42,32.13 29.18,32.41 29.95,32.69 30.58,33.20 31.21,33.72 31.65,34.40 32.09,35.09 32.29,35.88 32.48,36.67 32.41,37.49 32.34,38.30 32.02,39.05 31.70,39.79 31.15,40.40 30.61,41.01 29.90,41.41 29.19,41.80 28.38,41.96 27.58,42.11 26.78,42.00 25.97,41.89 25.24,41.52 24.51,41.16 23.94,40.58 23.36,40.00 23.00,39.27 22.64,38.54 22.53,37.73 22.42,36.93 22.58,36.13 22.73,35.32 23.14,34.62 23.54,33.91 24.15,33.36 24.75,32.82 25.50,32.50 26.25,32.18 27.07,32.12 27.88,32.05 28.67,32.25 29.46,32.45 30.14,32.89 30.83,33.33 31.34,33.97 31.85,34.60 32.13,35.37 32.41,36.13 32.43,36.95 32.45,37.76 32.21,38.54 31.97,39.32 31.97,39.32 31.97,39.32 29.95,42.54 27.93,45.77 26.02,46.97 24.11,48.17 21.87,50.05 19.63,51.92 16.99,53.60 14.34,55.27 11.18,55.70 8.01,56.12 5.56,54.21 3.10,52.30 2.19,49.65 1.28,47.00 0.32,42.95 -0.64,38.91 -1.52,33.63 -2.41,28.36 -2.87,23.41 -3.33,18.45 -3.93,15.05 -4.53,11.65 -4.49,8.70 -4.46,5.75 -4.41,2.87 -4.35,0 -4.29,-0.52 -4.23,-1.04 -4.04,-1.53 -3.85,-2.02 -3.55,-2.45 -3.26,-2.88 -2.86,-3.23 -2.47,-3.58 -2.00,-3.82 -1.54,-4.07 -1.03,-4.19 -0.52,-4.32 0.00,-4.32 0.52,-4.32 1.03,-4.19 1.54,-4.07 2.01,-3.82 2.47,-3.58 2.86,-3.23 3.26,-2.88 3.55,-2.45 3.85,-2.02 4.04,-1.53 4.23,-1.04 4.29,-0.52 4.35,0.00 4.35,0.00 L 4.35,0 Z"/></g></svg>