<svg version="1.1" xmlns="http://www.w3.org/2000/svg" viewBox="0 0 359.20001220703125 295.20001220703125" width="359.20001220703125" height="295.20001220703125" class="excalidraw-svg">
  <!-- svg-source:excalidraw -->
  
  <defs>
    <style class="style-fonts">
      @font-face {
        font-family: "Virgil";
        src: url("https://excalidraw.com/Virgil.woff2");
      }
      @font-face {
        font-family: "Cascadia";
        src: url("https://excalidraw.com/Cascadia.woff2");
      }
      @font-face {
        font-family: "Assistant";
        src: url("https://excalidraw.com/Assistant-Regular.woff2");
      }
    </style>
    
  </defs>
  <rect x="0" y="0" width="359.20001220703125" height="295.20001220703125" fill="#ffffff"/><g stroke-linecap="round" transform="translate(10 10) rotate(0 169.60000610351562 137.60000610351562)"><path d="M32 0 C131.58 1.69, 232.9 3.54, 307.2 0 M32 0 C141.92 -1, 251.92 -1.58, 307.2 0 M307.2 0 C328.95 -0.99, 338.18 10.51, 339.2 32 M307.2 0 C330.41 -1.55, 338.18 8.92, 339.2 32 M339.2 32 C342.68 88.96, 340.13 144.82, 339.2 243.2 M339.2 32 C338.84 95.5, 339.7 158.45, 339.2 243.2 M339.2 243.2 C339.09 265.45, 327.69 273.99, 307.2 275.2 M339.2 243.2 C337.29 263.42, 329.3 274.18, 307.2 275.2 M307.2 275.2 C234.07 277.44, 163.04 275.63, 32 275.2 M307.2 275.2 C207.75 277.42, 107.68 277.81, 32 275.2 M32 275.2 C10.37 274.56, 1.59 266.17, 0 243.2 M32 275.2 C11.01 273.56, 1.26 266.24, 0 243.2 M0 243.2 C0.38 160.13, -0.43 77.47, 0 32 M0 243.2 C-0.01 194.01, -0.82 143.24, 0 32 M0 32 C1.94 11.31, 10.8 0.58, 32 0 M0 32 C0.37 9.69, 12.25 -1.16, 32 0" stroke="#1e1e1e" stroke-width="2" fill="none"/></g></svg>