<svg version="1.1" xmlns="http://www.w3.org/2000/svg" viewBox="0 0 195.20001220703125 194.39999389648438" width="195.20001220703125" height="194.39999389648438" class="excalidraw-svg">
  <!-- svg-source:excalidraw -->
  
  <defs>
    <style class="style-fonts">
      @font-face {
        font-family: "Virgil";
        src: url("https://excalidraw.com/Virgil.woff2");
      }
      @font-face {
        font-family: "Cascadia";
        src: url("https://excalidraw.com/Cascadia.woff2");
      }
      @font-face {
        font-family: "Assistant";
        src: url("https://excalidraw.com/Assistant-Regular.woff2");
      }
    </style>
    
  </defs>
  <rect x="0" y="0" width="195.20001220703125" height="194.39999389648438" fill="#ffffff"/><g stroke-linecap="round" transform="translate(10 10) rotate(0 87.60000610351562 87.19999694824219)"><path d="M32 0 C63.32 -0.2, 91.79 -1.06, 143.2 0 M32 0 C70.57 0.77, 107.6 0.24, 143.2 0 M143.2 0 C164.86 -0.38, 176.44 11.87, 175.2 32 M143.2 0 C162.25 1.87, 177.23 8.79, 175.2 32 M175.2 32 C173.11 61.98, 175.97 93.09, 175.2 142.4 M175.2 32 C174.6 66.16, 175.01 100.83, 175.2 142.4 M175.2 142.4 C175.77 165.69, 163.13 174.53, 143.2 174.4 M175.2 142.4 C175.43 165.35, 164.81 176.48, 143.2 174.4 M143.2 174.4 C101.98 174.52, 58.82 175.1, 32 174.4 M143.2 174.4 C120.85 173.07, 96.17 172.91, 32 174.4 M32 174.4 C10.47 176.26, -0.14 163.81, 0 142.4 M32 174.4 C9.54 174.33, 1.43 163.36, 0 142.4 M0 142.4 C-0.6 106.11, 1.66 71.74, 0 32 M0 142.4 C-0.35 106.25, -0.24 70.46, 0 32 M0 32 C-0.56 8.83, 9.45 1.56, 32 0 M0 32 C1.22 12.92, 9.04 1.73, 32 0" stroke="#1e1e1e" stroke-width="2" fill="none"/></g></svg>