<svg version="1.1" xmlns="http://www.w3.org/2000/svg" viewBox="0 0 189.60000610351562 199.20001220703125" width="189.60000610351562" height="199.20001220703125" class="excalidraw-svg">
  <!-- svg-source:excalidraw -->
  
  <defs>
    <style class="style-fonts">
      @font-face {
        font-family: "Virgil";
        src: url("https://excalidraw.com/Virgil.woff2");
      }
      @font-face {
        font-family: "Cascadia";
        src: url("https://excalidraw.com/Cascadia.woff2");
      }
      @font-face {
        font-family: "Assistant";
        src: url("https://excalidraw.com/Assistant-Regular.woff2");
      }
    </style>
    
  </defs>
  <rect x="0" y="0" width="189.60000610351562" height="199.20001220703125" fill="#ffffff"/><g stroke-linecap="round" transform="translate(10 10) rotate(0 84.80000305175781 89.60000610351562)"><path d="M32 0 C67.18 0.44, 101.37 0.15, 137.6 0 M32 0 C69.35 0.49, 107 0.25, 137.6 0 M137.6 0 C157.05 -1.68, 168.86 9.72, 169.6 32 M137.6 0 C160.43 0.01, 168.77 10.2, 169.6 32 M169.6 32 C170.46 70.39, 169.13 109.34, 169.6 147.2 M169.6 32 C169.46 60.93, 168.86 91.77, 169.6 147.2 M169.6 147.2 C169.01 168.34, 158.49 177.71, 137.6 179.2 M169.6 147.2 C167.89 166.79, 157.26 178.69, 137.6 179.2 M137.6 179.2 C109.66 177.86, 81.95 179.04, 32 179.2 M137.6 179.2 C108.51 178.8, 81.02 179.52, 32 179.2 M32 179.2 C9.59 179.91, 0.34 166.78, 0 147.2 M32 179.2 C9.79 179.51, 1.54 168.23, 0 147.2 M0 147.2 C-1.68 119.34, -2.42 94.69, 0 32 M0 147.2 C0.67 104.29, 0.44 61.68, 0 32 M0 32 C-0.26 9.49, 9.29 1.81, 32 0 M0 32 C1.3 10.5, 11.49 -1.36, 32 0" stroke="#1e1e1e" stroke-width="2" fill="none"/></g></svg>