<svg version="1.1" xmlns="http://www.w3.org/2000/svg" viewBox="0 0 178.39999389648438 266.40000915527344" width="178.39999389648438" height="266.40000915527344" class="excalidraw-svg">
  <!-- svg-source:excalidraw -->
  
  <defs>
    <style class="style-fonts">
      @font-face {
        font-family: "Virgil";
        src: url("https://excalidraw.com/Virgil.woff2");
      }
      @font-face {
        font-family: "Cascadia";
        src: url("https://excalidraw.com/Cascadia.woff2");
      }
      @font-face {
        font-family: "Assistant";
        src: url("https://excalidraw.com/Assistant-Regular.woff2");
      }
    </style>
    
  </defs>
  <rect x="0" y="0" width="178.39999389648438" height="266.40000915527344" fill="#ffffff"/><g stroke-linecap="round" transform="translate(10 10) rotate(0 79.19999694824219 123.20000457763672)"><path d="M32 0 C64.25 -0.2, 96.25 0.9, 126.4 0 M32 0 C63.38 -0.07, 92.76 0.02, 126.4 0 M126.4 0 C146.98 -1.74, 158.05 12.17, 158.4 32 M126.4 0 C148.28 -1.7, 159.18 9.24, 158.4 32 M158.4 32 C158.86 92.87, 156.08 153.1, 158.4 214.4 M158.4 32 C160.46 97.83, 159.92 163.99, 158.4 214.4 M158.4 214.4 C157.82 234.79, 148.63 247.57, 126.4 246.4 M158.4 214.4 C158.74 235.15, 147.09 247.4, 126.4 246.4 M126.4 246.4 C91.16 245.06, 54.77 247.06, 32 246.4 M126.4 246.4 C98.91 247.78, 74.27 246.15, 32 246.4 M32 246.4 C10.28 246.13, -1.5 233.8, 0 214.4 M32 246.4 C9.53 247.46, -0.96 236.02, 0 214.4 M0 214.4 C-0.35 156.97, -0.04 101.39, 0 32 M0 214.4 C1.38 142.55, 1.4 70.19, 0 32 M0 32 C1.54 9.9, 11.33 0.68, 32 0 M0 32 C-0.29 10, 11.05 -2.09, 32 0" stroke="#1e1e1e" stroke-width="2" fill="none"/></g></svg>