<svg version="1.1" xmlns="http://www.w3.org/2000/svg" viewBox="0 0 164.1999969482422 195.51874923706055" width="164.1999969482422" height="195.51874923706055" class="excalidraw-svg">
  <!-- svg-source:excalidraw -->
  
  <defs>
    <style class="style-fonts">
      @font-face {
        font-family: "Virgil";
        src: url("https://excalidraw.com/Virgil.woff2");
      }
      @font-face {
        font-family: "Cascadia";
        src: url("https://excalidraw.com/Cascadia.woff2");
      }
      @font-face {
        font-family: "Assistant";
        src: url("https://excalidraw.com/Assistant-Regular.woff2");
      }
    </style>
    
  </defs>
  <rect x="0" y="0" width="164.1999969482422" height="195.51874923706055" fill="#ffffff"/><g stroke-linecap="round" transform="translate(42.19999694824219 77.51874923706055) rotate(0 56 54)"><path d="M27 0 C48.99 -1.9, 68.36 -0.85, 85 0 M27 0 C45.82 -0.27, 62.67 -1.12, 85 0 M85 0 C104 -0.5, 112.09 7.97, 112 27 M85 0 C105.27 0.77, 113.72 10.73, 112 27 M112 27 C113.49 45.56, 112.6 62.1, 112 81 M112 27 C112.15 44.72, 113.4 63.57, 112 81 M112 81 C113.46 99.43, 101.94 106.86, 85 108 M112 81 C110.7 98.22, 101.48 107.28, 85 108 M85 108 C66.92 106.63, 50.59 107.93, 27 108 M85 108 C67.42 108.69, 49.81 108.87, 27 108 M27 108 C8.24 106.42, 1.13 100.92, 0 81 M27 108 C6.76 108.84, -0.31 97.07, 0 81 M0 81 C-1.5 66.28, -0.53 53.39, 0 27 M0 81 C0.63 60.2, 1.32 37.36, 0 27 M0 27 C-1.04 10.47, 9.48 -1.62, 27 0 M0 27 C-0.98 11.03, 9.74 0.41, 27 0" stroke="#1e1e1e" stroke-width="2" fill="none"/></g><g stroke-linecap="round" transform="translate(10 10) rotate(0 27.599998474121094 17.599998474121094)"><path d="M15.97 0.6 C20.95 -1.03, 28.94 -1.12, 34.66 0.24 C40.38 1.6, 47 5.64, 50.29 8.75 C53.58 11.86, 54.94 15.17, 54.4 18.88 C53.86 22.59, 51.04 28.39, 47.05 31.01 C43.07 33.64, 36.52 34.37, 30.49 34.63 C24.45 34.89, 15.76 34.84, 10.85 32.57 C5.95 30.31, 2.47 24.68, 1.06 21.05 C-0.36 17.41, -0.85 14.13, 2.37 10.76 C5.59 7.4, 16.88 2.61, 20.38 0.85 C23.89 -0.92, 23.24 0.08, 23.41 0.18 M23.67 -0.48 C29.32 -1.2, 36.14 0.33, 41.19 2.34 C46.25 4.35, 51.97 8.08, 53.99 11.59 C56.01 15.11, 55.41 19.7, 53.32 23.44 C51.24 27.17, 46.6 32.25, 41.49 34 C36.38 35.74, 28.32 34.96, 22.67 33.91 C17.03 32.87, 11.32 30.5, 7.62 27.72 C3.91 24.94, 0.81 20.92, 0.43 17.21 C0.06 13.51, 1.73 8.13, 5.38 5.5 C9.02 2.86, 19.54 2.38, 22.31 1.41 C25.08 0.43, 21.75 -0.23, 21.99 -0.36" stroke="#1e1e1e" stroke-width="2" fill="none"/></g></svg>