<svg version="1.1" xmlns="http://www.w3.org/2000/svg" viewBox="0 0 608.7999877929688 378.3999786376953" width="608.7999877929688" height="378.3999786376953" class="excalidraw-svg">
  <!-- svg-source:excalidraw -->
  
  <defs>
    <style class="style-fonts">
      @font-face {
        font-family: "Virgil";
        src: url("https://excalidraw.com/Virgil.woff2");
      }
      @font-face {
        font-family: "Cascadia";
        src: url("https://excalidraw.com/Cascadia.woff2");
      }
      @font-face {
        font-family: "Assistant";
        src: url("https://excalidraw.com/Assistant-Regular.woff2");
      }
    </style>
    
  </defs>
  <rect x="0" y="0" width="608.7999877929688" height="378.3999786376953" fill="#ffffff"/><g stroke-linecap="round" transform="translate(10 10) rotate(0 76 131.20000457763672)"><path d="M62.94 3.16 C71.02 -1.63, 80.17 0.06, 89.1 2.96 C98.04 5.86, 108.55 12.24, 116.54 20.57 C124.52 28.9, 131.57 40.61, 137.01 52.93 C142.44 65.26, 146.83 79.53, 149.14 94.54 C151.45 109.54, 151.77 127.29, 150.85 142.97 C149.93 158.65, 147.66 174.37, 143.63 188.63 C139.59 202.89, 133.47 217.62, 126.66 228.54 C119.85 239.46, 111.18 248.41, 102.75 254.14 C94.31 259.87, 85.22 262.97, 76.06 262.91 C66.89 262.85, 56.18 259.56, 47.77 253.79 C39.36 248.02, 32.33 239.04, 25.6 228.27 C18.88 217.5, 11.55 203.36, 7.42 189.17 C3.29 174.97, 1.57 158.84, 0.83 143.1 C0.08 127.36, 0.36 109.77, 2.94 94.73 C5.52 79.68, 10.96 65.22, 16.3 52.84 C21.65 40.45, 26.99 28.83, 35.01 20.42 C43.02 12.01, 59.31 5.13, 64.4 2.35 C69.48 -0.42, 65.44 1.76, 65.52 3.78 M82.11 0.31 C90.66 -0.61, 99.12 5.41, 107.04 12.05 C114.95 18.68, 123.06 28.57, 129.59 40.14 C136.11 51.7, 142.25 66.9, 146.19 81.45 C150.12 96, 152.79 112.02, 153.19 127.45 C153.58 142.88, 151.85 159.19, 148.54 174.01 C145.24 188.83, 139.25 204.19, 133.34 216.37 C127.44 228.55, 121.34 239.84, 113.11 247.1 C104.88 254.37, 93.22 257.89, 83.98 259.96 C74.74 262.03, 66.27 263.25, 57.69 259.52 C49.12 255.78, 40.11 246.96, 32.52 237.55 C24.93 228.13, 17.46 216.3, 12.15 203.03 C6.84 189.76, 2.59 173.16, 0.66 157.91 C-1.28 142.65, -1.17 127.02, 0.53 111.52 C2.24 96.01, 6.17 78.82, 10.9 64.89 C15.63 50.97, 21.68 37.65, 28.92 27.98 C36.15 18.31, 45.44 11.49, 54.32 6.88 C63.2 2.27, 77.8 1.13, 82.19 0.31 C86.59 -0.5, 80.82 -0.32, 80.67 1.99" stroke="#1e1e1e" stroke-width="2" fill="none"/></g><g stroke-linecap="round" transform="translate(319.5999755859375 64.40000915527344) rotate(0 139.60000610351562 151.99998474121094)"><path d="M176.98 5.18 C190.68 6.9, 204.82 16.58, 216.67 25.4 C228.52 34.22, 239.12 45.99, 248.07 58.1 C257.01 70.2, 265.18 83.64, 270.34 98.04 C275.49 112.43, 278.36 128.73, 279 144.49 C279.64 160.24, 277.88 177.21, 274.19 192.56 C270.49 207.91, 264.75 223.43, 256.82 236.58 C248.88 249.74, 238.08 261.89, 226.59 271.48 C215.1 281.08, 201.4 288.61, 187.89 294.15 C174.38 299.69, 159.76 304.13, 145.54 304.73 C131.31 305.32, 116.51 302, 102.53 297.72 C88.56 293.45, 73.56 287.54, 61.67 279.1 C49.78 270.67, 40.06 259.45, 31.2 247.12 C22.34 234.79, 13.74 219.95, 8.52 205.1 C3.3 190.26, 0.58 173.71, -0.11 158.07 C-0.81 142.43, 0.38 126.16, 4.34 111.26 C8.29 96.36, 15.62 81.62, 23.62 68.65 C31.61 55.67, 41.23 43.11, 52.3 33.41 C63.37 23.72, 76.45 15.86, 90.05 10.46 C103.65 5.07, 116.33 0.67, 133.91 1.04 C151.5 1.41, 182.71 8.51, 195.57 12.68 C208.44 16.84, 211.95 23.71, 211.11 26.04 M133.05 -0.4 C146.44 -3.55, 162.53 1.12, 176.4 5.47 C190.27 9.81, 204.09 16.92, 216.26 25.69 C228.43 34.46, 240.43 45.6, 249.44 58.07 C258.45 70.53, 265.47 85.95, 270.34 100.5 C275.22 115.05, 277.89 130.11, 278.69 145.38 C279.49 160.65, 278.8 177.07, 275.15 192.1 C271.5 207.13, 264.74 222.63, 256.78 235.58 C248.83 248.53, 239.08 260.01, 227.44 269.81 C215.81 279.61, 200.82 288.87, 186.98 294.38 C173.14 299.89, 158.75 302.24, 144.38 302.88 C130.02 303.53, 114.44 302.41, 100.8 298.25 C87.17 294.09, 74.34 286.65, 62.57 277.93 C50.79 269.2, 39.21 258.29, 30.15 245.91 C21.09 233.53, 13.12 218.16, 8.22 203.65 C3.31 189.14, 1.07 174.44, 0.71 158.86 C0.35 143.28, 2.1 125.35, 6.06 110.18 C10.03 95.01, 16.59 80.82, 24.51 67.84 C32.42 54.86, 42.21 42.12, 53.54 32.3 C64.87 22.49, 78.88 14.52, 92.5 8.94 C106.12 3.35, 128.22 -0.06, 135.26 -1.23 C142.29 -2.4, 134.68 -1.08, 134.72 1.91" stroke="#1e1e1e" stroke-width="2" fill="none"/></g></svg>