<svg version="1.1" xmlns="http://www.w3.org/2000/svg" viewBox="0 0 228 299.1999969482422" width="228" height="299.1999969482422" class="excalidraw-svg">
  <!-- svg-source:excalidraw -->
  
  <defs>
    <style class="style-fonts">
      @font-face {
        font-family: "Virgil";
        src: url("https://excalidraw.com/Virgil.woff2");
      }
      @font-face {
        font-family: "Cascadia";
        src: url("https://excalidraw.com/Cascadia.woff2");
      }
      @font-face {
        font-family: "Assistant";
        src: url("https://excalidraw.com/Assistant-Regular.woff2");
      }
    </style>
    
  </defs>
  <rect x="0" y="0" width="228" height="299.1999969482422" fill="#ffffff"/><g stroke-linecap="round" transform="translate(10 10) rotate(0 104 139.5999984741211)"><path d="M68.41 9.1 C78.48 1.89, 91.48 0.3, 103.16 0.28 C114.84 0.26, 127.21 3.49, 138.51 8.95 C149.81 14.42, 161.74 23.05, 170.96 33.07 C180.18 43.1, 188.02 55.4, 193.82 69.1 C199.61 82.79, 203.52 99.6, 205.73 115.26 C207.94 130.92, 208.99 147.46, 207.08 163.06 C205.17 178.66, 200.16 195.11, 194.26 208.85 C188.36 222.59, 180.78 235.31, 171.69 245.49 C162.6 255.67, 150.95 264.4, 139.74 269.94 C128.53 275.47, 116.21 278.5, 104.44 278.72 C92.66 278.94, 80.19 276.56, 69.09 271.26 C57.98 265.96, 46.81 257.16, 37.81 246.91 C28.81 236.67, 21.17 223.38, 15.1 209.78 C9.03 196.18, 3.77 180.83, 1.4 165.33 C-0.97 149.82, -1.1 132.43, 0.87 116.75 C2.83 101.07, 7.39 85.34, 13.21 71.27 C19.03 57.21, 25.84 43.3, 35.79 32.38 C45.73 21.46, 65.85 10.08, 72.88 5.75 C79.91 1.41, 77.46 3.99, 77.98 6.35 M83.25 1.49 C94.07 -3.42, 108.5 -0.2, 120.44 2.29 C132.39 4.78, 144.45 8.87, 154.93 16.44 C165.41 24, 175.55 35.65, 183.31 47.67 C191.07 59.69, 197.13 73.83, 201.47 88.56 C205.82 103.29, 209 120.29, 209.4 136.05 C209.79 151.82, 207.76 168.2, 203.83 183.16 C199.89 198.11, 193.28 212.89, 185.8 225.76 C178.32 238.63, 169.13 252.02, 158.95 260.38 C148.76 268.75, 136.31 272.96, 124.68 275.93 C113.05 278.9, 100.73 280.31, 89.16 278.2 C77.59 276.1, 65.71 270.88, 55.25 263.29 C44.78 255.7, 34.34 244.87, 26.38 232.66 C18.41 220.44, 11.87 204.79, 7.45 190 C3.03 175.22, 0.17 159.7, -0.14 143.94 C-0.46 128.19, 1.8 110.73, 5.58 95.47 C9.35 80.2, 15.28 65.01, 22.52 52.36 C29.75 39.72, 39.01 28.03, 48.97 19.61 C58.94 11.18, 76.3 3.97, 82.31 1.83 C88.32 -0.31, 84.6 4.36, 85.04 6.75" stroke="#1e1e1e" stroke-width="2" fill="none"/></g></svg>